999
dxfrw 0.6.3
  0
SECTION
  2
HEADER
  9
$ACADVER
  1
AC1021
  9
$DWGCODEPAGE
  3
ANSI_1252
  9
$INSBASE
 10
0
 20
0
 30
0
  9
$EXTMIN
 10
-27.625
 20
-22.61138913591185
 30
0
  9
$EXTMAX
 10
95.25
 20
36.12500205714902
 30
0
  9
$LIMMIN
 10
0
 20
0
  9
$LIMMAX
 10
420
 20
297
  9
$ORTHOMODE
 70
    0
  9
$REGENMODE
 70
    1
  9
$FILLMODE
 70
    1
  9
$QTEXTMODE
 70
    0
  9
$MIRRTEXT
 70
    0
  9
$LTSCALE
 40
1
  9
$ATTMODE
 70
    0
  9
$TEXTSIZE
 40
2.5
  9
$TRACEWID
 40
15.68
  9
$TEXTSTYLE
  7
STANDARD
  9
$CLAYER
  8
Dimensions
  9
$CELTYPE
  6
BYLAYER
  9
$CECOLOR
 62
  256
  9
$CELTSCALE
 40
1
  9
$DISPSILH
 70
    0
  9
$DIMSCALE
 40
1
  9
$DIMASZ
 40
1
  9
$DIMEXO
 40
0.625
  9
$DIMDLI
 40
3.75
  9
$DIMRND
 40
0
  9
$DIMDLE
 40
0
  9
$DIMEXE
 40
1.25
  9
$DIMTP
 40
0
  9
$DIMTM
 40
0
  9
$DIMTXT
 40
1
  9
$DIMCEN
 40
2.5
  9
$DIMTSZ
 40
0
  9
$DIMTOL
 70
    0
  9
$DIMLIM
 70
    0
  9
$DIMTIH
 70
    0
  9
$DIMTOH
 70
    0
  9
$DIMSE1
 70
    0
  9
$DIMSE2
 70
    0
  9
$DIMTAD
 70
    1
  9
$DIMZIN
 70
    1
  9
$DIMBLK
  1

  9
$DIMASO
 70
    1
  9
$DIMSHO
 70
    1
  9
$DIMPOST
  1

  9
$DIMAPOST
  1

  9
$DIMALT
 70
    0
  9
$DIMALTD
 70
    3
  9
$DIMALTF
 40
0.03937
  9
$DIMLFAC
 40
1
  9
$DIMTOFL
 70
    1
  9
$DIMTVP
 40
0
  9
$DIMTIX
 70
    0
  9
$DIMSOXD
 70
    0
  9
$DIMSAH
 70
    0
  9
$DIMBLK1
  1

  9
$DIMBLK2
  1

  9
$DIMSTYLE
  2
STANDARD
  9
$DIMCLRD
 70
    0
  9
$DIMCLRE
 70
    0
  9
$DIMCLRT
 70
    0
  9
$DIMTFAC
 40
1
  9
$DIMGAP
 40
0.625
  9
$DIMJUST
 70
    0
  9
$DIMSD1
 70
    0
  9
$DIMSD2
 70
    0
  9
$DIMTOLJ
 70
    0
  9
$DIMTZIN
 70
    8
  9
$DIMALTZ
 70
    0
  9
$DIMALTTZ
 70
    0
  9
$DIMUPT
 70
    0
  9
$DIMDEC
 70
    4
  9
$DIMTDEC
 70
    2
  9
$DIMALTU
 70
    2
  9
$DIMALTTD
 70
    3
  9
$DIMTXSTY
  7
standard
  9
$DIMAUNIT
 70
    0
  9
$DIMADEC
 70
    2
  9
$DIMALTRND
 40
0
  9
$DIMAZIN
 70
    0
  9
$DIMDSEP
 70
    0
  9
$DIMATFIT
 70
    3
  9
$DIMFRAC
 70
    0
  9
$DIMLDRBLK
  1
STANDARD
  9
$DIMLUNIT
 70
    2
  9
$DIMLWD
 70
    8
  9
$DIMLWE
 70
   -2
  9
$DIMTMOVE
 70
    0
  9
$DIMFXL
 40
1
  9
$DIMFXLON
 70
    0
  9
$DIMJOGANG
 40
0.7854
  9
$DIMTFILL
 70
    0
  9
$DIMTFILLCLR
 70
    0
  9
$DIMARCSYM
 70
    0
  9
$DIMLTYPE
  6

  9
$DIMLTEX1
  6

  9
$DIMLTEX2
  6

  9
$LUNITS
 70
    2
  9
$LUPREC
 70
    4
  9
$SKETCHINC
 40
1
  9
$FILLETRAD
 40
0
  9
$AUNITS
 70
    0
  9
$AUPREC
 70
    2
  9
$MENU
  1
.
  9
$ELEVATION
 40
0
  9
$PELEVATION
 40
0
  9
$THICKNESS
 40
0
  9
$LIMCHECK
 70
    0
  9
$CHAMFERA
 40
0
  9
$CHAMFERB
 40
0
  9
$CHAMFERC
 40
0
  9
$CHAMFERD
 40
0
  9
$SKPOLY
 70
    0
  9
$USRTIMER
 70
    1
  9
$ANGBASE
 50
0
  9
$ANGDIR
 70
    0
  9
$PDMODE
 70
   96
  9
$PDSIZE
 40
-2
  9
$PLINEWID
 40
0
  9
$SPLFRAME
 70
    0
  9
$SPLINETYPE
 70
    2
  9
$SPLINESEGS
 70
    8
  9
$HANDSEED
  5
20000
  9
$SURFTAB1
 70
    6
  9
$SURFTAB2
 70
    6
  9
$SURFTYPE
 70
    6
  9
$SURFU
 70
    6
  9
$SURFV
 70
    6
  9
$UCSBASE
  2

  9
$UCSNAME
  2

  9
$UCSORG
 10
0
 20
0
 30
0
  9
$UCSXDIR
 10
1
 20
0
 30
0
  9
$UCSYDIR
 10
0
 20
1
 30
0
  9
$UCSORTHOREF
  2

  9
$UCSORTHOVIEW
 70
    0
  9
$UCSORGTOP
 10
0
 20
0
 30
0
  9
$UCSORGBOTTOM
 10
0
 20
0
 30
0
  9
$UCSORGLEFT
 10
0
 20
0
 30
0
  9
$UCSORGRIGHT
 10
0
 20
0
 30
0
  9
$UCSORGFRONT
 10
0
 20
0
 30
0
  9
$UCSORGBACK
 10
0
 20
0
 30
0
  9
$PUCSBASE
  2

  9
$PUCSNAME
  2

  9
$PUCSORG
 10
0
 20
0
 30
0
  9
$PUCSXDIR
 10
1
 20
0
 30
0
  9
$PUCSYDIR
 10
0
 20
1
 30
0
  9
$PUCSORTHOREF
  2

  9
$PUCSORTHOVIEW
 70
    0
  9
$PUCSORGTOP
 10
0
 20
0
 30
0
  9
$PUCSORGBOTTOM
 10
0
 20
0
 30
0
  9
$PUCSORGLEFT
 10
0
 20
0
 30
0
  9
$PUCSORGRIGHT
 10
0
 20
0
 30
0
  9
$PUCSORGFRONT
 10
0
 20
0
 30
0
  9
$PUCSORGBACK
 10
0
 20
0
 30
0
  9
$USERI1
 70
    0
  9
$USERI2
 70
    0
  9
$USERI3
 70
    0
  9
$USERI4
 70
    0
  9
$USERI5
 70
    0
  9
$USERR1
 40
0
  9
$USERR2
 40
0
  9
$USERR3
 40
0
  9
$USERR4
 40
0
  9
$USERR5
 40
0
  9
$WORLDVIEW
 70
    1
  9
$SHADEDGE
 70
    3
  9
$SHADEDIF
 70
   70
  9
$TILEMODE
 70
    1
  9
$MAXACTVP
 70
   64
  9
$PINSBASE
 10
6
 20
0
 30
0
  9
$PLIMCHECK
 70
    0
  9
$PEXTMIN
 10
0
 20
0
 30
0
  9
$PEXTMAX
 10
0
 20
0
 30
0
  9
$GRIDMODE
 70
    1
  9
$SNAPSTYLE
 70
    0
  9
$GRIDUNIT
 10
0
 20
0
  9
$PLIMMIN
 10
0
 20
0
  9
$PLIMMAX
 10
210
 20
297
  9
$UNITMODE
 70
    0
  9
$VISRETAIN
 70
    1
  9
$PLINEGEN
 70
    0
  9
$PSLTSCALE
 70
    1
  9
$TREEDEPTH
 70
 3020
  9
$CMLSTYLE
  2
Standard
  9
$CMLJUST
 70
    0
  9
$CMLSCALE
 40
20
  9
$PROXYGRAPHICS
 70
    1
  9
$MEASUREMENT
 70
    1
  9
$CELWEIGHT
370
   -1
  9
$ENDCAPS
280
    0
  9
$JOINSTYLE
280
    0
  9
$LWDISPLAY
290
    0
  9
$INSUNITS
 70
    4
  9
$HYPERLINKBASE
  1

  9
$STYLESHEET
  1

  9
$XEDIT
290
    1
  9
$CEPSNTYPE
380
    0
  9
$PSTYLEMODE
290
    1
  9
$EXTNAMES
290
    1
  9
$PSVPSCALE
 40
19.8
  9
$OLESTARTUP
290
    0
  9
$SORTENTS
280
  127
  9
$INDEXCTL
280
    0
  9
$HIDETEXT
280
    1
  9
$XCLIPFRAME
290
    0
  9
$HALOGAP
280
    0
  9
$OBSCOLOR
 70
  257
  9
$OBSLTYPE
280
    0
  9
$INTERSECTIONDISPLAY
280
    0
  9
$INTERSECTIONCOLOR
 70
  257
  9
$DIMASSOC
280
    1
  9
$PROJECTNAME
  1

  9
$CAMERADISPLAY
290
    0
  9
$LENSLENGTH
 40
50
  9
$CAMERAHEIGHT
 40
0
  9
$STEPSPERSEC
 40
2
  9
$STEPSIZE
 40
50
  9
$3DDWFPREC
 40
2
  9
$PSOLWIDTH
 40
5
  9
$PSOLHEIGHT
 40
80
  9
$LOFTANG1
 40
1.570796326794897
  9
$LOFTANG2
 40
1.570796326794897
  9
$LOFTMAG1
 40
0
  9
$LOFTMAG2
 40
0
  9
$LOFTPARAM
 70
    7
  9
$LOFTNORMALS
280
    1
  9
$LATITUDE
 40
1
  9
$LONGITUDE
 40
1
  9
$NORTHDIRECTION
 40
0
  9
$TIMEZONE
 70
-8000
  9
$LIGHTGLYPHDISPLAY
280
    1
  9
$TILEMODELIGHTSYNCH
280
    1
  9
$SOLIDHIST
280
    1
  9
$SHOWHIST
280
    1
  9
$DWFFRAME
280
    2
  9
$DGNFRAME
280
    0
  9
$REALWORLDSCALE
290
    1
  9
$INTERFERECOLOR
 62
    1
  9
$CSHADOW
280
    0
  9
$SHADOWPLANELOCATION
 40
0
  0
ENDSEC
  0
SECTION
  2
CLASSES
  0
ENDSEC
  0
SECTION
  2
TABLES
  0
TABLE
  2
VPORT
  5
8
330
0
100
AcDbSymbolTable
 70
    1
  0
VPORT
  5
31
330
2
100
AcDbSymbolTableRecord
100
AcDbViewportTableRecord
  2
*ACTIVE
 70
    0
 10
0
 20
0
 11
1
 21
1
 12
55.62247240072916
 22
19.2370210872087
 13
0
 23
0
 14
10
 24
10
 15
10
 25
10
 16
0
 26
0
 36
1
 17
0
 27
0
 37
0
 40
87.72081615767168
 41
1.847117794486216
 42
50
 43
0
 44
0
 50
0
 51
0
 71
    0
 72
  100
 73
    1
 74
    3
 75
    0
 76
    1
 77
    0
 78
    0
281
    0
 65
    1
110
0
120
0
130
0
111
1
121
0
131
0
112
0
122
1
132
0
 79
    0
146
0
348
10020
 60
    7
 61
    5
292
1
282
    1
141
0
142
0
 63
  250
421
3358443
  0
ENDTAB
  0
TABLE
  2
LTYPE
  5
5
330
0
100
AcDbSymbolTable
 70
    4
  0
LTYPE
  5
14
330
5
100
AcDbSymbolTableRecord
100
AcDbLinetypeTableRecord
  2
ByBlock
 70
    0
  3

 72
   65
 73
    0
 40
0
  0
LTYPE
  5
15
330
5
100
AcDbSymbolTableRecord
100
AcDbLinetypeTableRecord
  2
ByLayer
 70
    0
  3

 72
   65
 73
    0
 40
0
  0
LTYPE
  5
16
330
5
100
AcDbSymbolTableRecord
100
AcDbLinetypeTableRecord
  2
Continuous
 70
    0
  3
Solid line
 72
   65
 73
    0
 40
0
  0
LTYPE
  5
32
330
5
100
AcDbSymbolTableRecord
100
AcDbLinetypeTableRecord
  2
DOT
 70
    0
  3
Dot . . . . . . . . . . . . . . . . . . . . . .
 72
   65
 73
    2
 40
6.35
 49
0
 74
    0
 49
-6.35
 74
    0
  0
LTYPE
  5
33
330
5
100
AcDbSymbolTableRecord
100
AcDbLinetypeTableRecord
  2
DOTTINY
 70
    0
  3
Dot (.15x) .....................................
 72
   65
 73
    2
 40
0.9525
 49
0
 74
    0
 49
-0.9525
 74
    0
  0
LTYPE
  5
34
330
5
100
AcDbSymbolTableRecord
100
AcDbLinetypeTableRecord
  2
DOT2
 70
    0
  3
Dot (.5x) .....................................
 72
   65
 73
    2
 40
3.175
 49
0
 74
    0
 49
-3.175
 74
    0
  0
LTYPE
  5
35
330
5
100
AcDbSymbolTableRecord
100
AcDbLinetypeTableRecord
  2
DOTX2
 70
    0
  3
Dot (2x) .  .  .  .  .  .  .  .  .  .  .  .  .
 72
   65
 73
    2
 40
12.7
 49
0
 74
    0
 49
-12.7
 74
    0
  0
LTYPE
  5
36
330
5
100
AcDbSymbolTableRecord
100
AcDbLinetypeTableRecord
  2
DASHED
 70
    0
  3
Dashed _ _ _ _ _ _ _ _ _ _ _ _ _ _ _ _ _
 72
   65
 73
    2
 40
19.05
 49
12.7
 74
    0
 49
-6.35
 74
    0
  0
LTYPE
  5
37
330
5
100
AcDbSymbolTableRecord
100
AcDbLinetypeTableRecord
  2
DASHEDTINY
 70
    0
  3
Dashed (.15x) _ _ _ _ _ _ _ _ _ _ _ _ _ _ _ _ _
 72
   65
 73
    2
 40
2.8575
 49
1.905
 74
    0
 49
-0.9525
 74
    0
  0
LTYPE
  5
38
330
5
100
AcDbSymbolTableRecord
100
AcDbLinetypeTableRecord
  2
DASHED2
 70
    0
  3
Dashed (.5x) _ _ _ _ _ _ _ _ _ _ _ _ _ _ _ _ _
 72
   65
 73
    2
 40
9.524999999999999
 49
6.35
 74
    0
 49
-3.175
 74
    0
  0
LTYPE
  5
39
330
5
100
AcDbSymbolTableRecord
100
AcDbLinetypeTableRecord
  2
DASHEDX2
 70
    0
  3
Dashed (2x) ____  ____  ____  ____  ____  ___
 72
   65
 73
    2
 40
38.09999999999999
 49
25.4
 74
    0
 49
-12.7
 74
    0
  0
LTYPE
  5
3A
330
5
100
AcDbSymbolTableRecord
100
AcDbLinetypeTableRecord
  2
DASHDOT
 70
    0
  3
Dash dot __ . __ . __ . __ . __ . __ . __ . __
 72
   65
 73
    4
 40
25.4
 49
12.7
 74
    0
 49
-6.35
 74
    0
 49
0
 74
    0
 49
-6.35
 74
    0
  0
LTYPE
  5
3B
330
5
100
AcDbSymbolTableRecord
100
AcDbLinetypeTableRecord
  2
DASHDOTTINY
 70
    0
  3
Dash dot (.15x) _._._._._._._._._._._._._._._.
 72
   65
 73
    4
 40
3.81
 49
1.905
 74
    0
 49
-0.9525
 74
    0
 49
0
 74
    0
 49
-0.9525
 74
    0
  0
LTYPE
  5
3C
330
5
100
AcDbSymbolTableRecord
100
AcDbLinetypeTableRecord
  2
DASHDOT2
 70
    0
  3
Dash dot (.5x) _._._._._._._._._._._._._._._.
 72
   65
 73
    4
 40
12.7
 49
6.35
 74
    0
 49
-3.175
 74
    0
 49
0
 74
    0
 49
-3.175
 74
    0
  0
LTYPE
  5
3D
330
5
100
AcDbSymbolTableRecord
100
AcDbLinetypeTableRecord
  2
DASHDOTX2
 70
    0
  3
Dash dot (2x) ____  .  ____  .  ____  .  ___
 72
   65
 73
    4
 40
50.8
 49
25.4
 74
    0
 49
-12.7
 74
    0
 49
0
 74
    0
 49
-12.7
 74
    0
  0
LTYPE
  5
3E
330
5
100
AcDbSymbolTableRecord
100
AcDbLinetypeTableRecord
  2
DIVIDE
 70
    0
  3
Divide ____ . . ____ . . ____ . . ____ . . ____
 72
   65
 73
    6
 40
31.75
 49
12.7
 74
    0
 49
-6.35
 74
    0
 49
0
 74
    0
 49
-6.35
 74
    0
 49
0
 74
    0
 49
-6.35
 74
    0
  0
LTYPE
  5
3F
330
5
100
AcDbSymbolTableRecord
100
AcDbLinetypeTableRecord
  2
DIVIDETINY
 70
    0
  3
Divide (.15x) __..__..__..__..__..__..__..__.._
 72
   65
 73
    6
 40
4.7625
 49
1.905
 74
    0
 49
-0.9525
 74
    0
 49
0
 74
    0
 49
-0.9525
 74
    0
 49
0
 74
    0
 49
-0.9525
 74
    0
  0
LTYPE
  5
40
330
5
100
AcDbSymbolTableRecord
100
AcDbLinetypeTableRecord
  2
DIVIDE2
 70
    0
  3
Divide (.5x) __..__..__..__..__..__..__..__.._
 72
   65
 73
    6
 40
15.875
 49
6.35
 74
    0
 49
-3.175
 74
    0
 49
0
 74
    0
 49
-3.175
 74
    0
 49
0
 74
    0
 49
-3.175
 74
    0
  0
LTYPE
  5
41
330
5
100
AcDbSymbolTableRecord
100
AcDbLinetypeTableRecord
  2
DIVIDEX2
 70
    0
  3
Divide (2x) ________  .  .  ________  .  .  _
 72
   65
 73
    6
 40
63.5
 49
25.4
 74
    0
 49
-12.7
 74
    0
 49
0
 74
    0
 49
-12.7
 74
    0
 49
0
 74
    0
 49
-12.7
 74
    0
  0
LTYPE
  5
42
330
5
100
AcDbSymbolTableRecord
100
AcDbLinetypeTableRecord
  2
BORDER
 70
    0
  3
Border __ __ . __ __ . __ __ . __ __ . __ __ .
 72
   65
 73
    6
 40
44.45
 49
12.7
 74
    0
 49
-6.35
 74
    0
 49
12.7
 74
    0
 49
-6.35
 74
    0
 49
0
 74
    0
 49
-6.35
 74
    0
  0
LTYPE
  5
43
330
5
100
AcDbSymbolTableRecord
100
AcDbLinetypeTableRecord
  2
BORDERTINY
 70
    0
  3
Border (.15x) __.__.__.__.__.__.__.__.__.__.__.
 72
   65
 73
    6
 40
6.6675
 49
1.905
 74
    0
 49
-0.9525
 74
    0
 49
1.905
 74
    0
 49
-0.9525
 74
    0
 49
0
 74
    0
 49
-0.9525
 74
    0
  0
LTYPE
  5
44
330
5
100
AcDbSymbolTableRecord
100
AcDbLinetypeTableRecord
  2
BORDER2
 70
    0
  3
Border (.5x) __.__.__.__.__.__.__.__.__.__.__.
 72
   65
 73
    6
 40
22.225
 49
6.35
 74
    0
 49
-3.175
 74
    0
 49
6.35
 74
    0
 49
-3.175
 74
    0
 49
0
 74
    0
 49
-3.175
 74
    0
  0
LTYPE
  5
45
330
5
100
AcDbSymbolTableRecord
100
AcDbLinetypeTableRecord
  2
BORDERX2
 70
    0
  3
Border (2x) ____  ____  .  ____  ____  .  ___
 72
   65
 73
    6
 40
88.89999999999999
 49
25.4
 74
    0
 49
-12.7
 74
    0
 49
25.4
 74
    0
 49
-12.7
 74
    0
 49
0
 74
    0
 49
-12.7
 74
    0
  0
LTYPE
  5
46
330
5
100
AcDbSymbolTableRecord
100
AcDbLinetypeTableRecord
  2
CENTER
 70
    0
  3
Center ____ _ ____ _ ____ _ ____ _ ____ _ ____
 72
   65
 73
    4
 40
50.8
 49
31.75
 74
    0
 49
-6.35
 74
    0
 49
6.35
 74
    0
 49
-6.35
 74
    0
  0
LTYPE
  5
47
330
5
100
AcDbSymbolTableRecord
100
AcDbLinetypeTableRecord
  2
CENTERTINY
 70
    0
  3
Center (.15x) ___ _ ___ _ ___ _ ___ _ ___ _ ___
 72
   65
 73
    4
 40
7.619999999999999
 49
4.7625
 74
    0
 49
-0.9525
 74
    0
 49
0.9525
 74
    0
 49
-0.9525
 74
    0
  0
LTYPE
  5
48
330
5
100
AcDbSymbolTableRecord
100
AcDbLinetypeTableRecord
  2
CENTER2
 70
    0
  3
Center (.5x) ___ _ ___ _ ___ _ ___ _ ___ _ ___
 72
   65
 73
    4
 40
28.575
 49
19.05
 74
    0
 49
-3.175
 74
    0
 49
3.175
 74
    0
 49
-3.175
 74
    0
  0
LTYPE
  5
49
330
5
100
AcDbSymbolTableRecord
100
AcDbLinetypeTableRecord
  2
CENTERX2
 70
    0
  3
Center (2x) ________  __  ________  __  _____
 72
   65
 73
    4
 40
101.6
 49
63.5
 74
    0
 49
-12.7
 74
    0
 49
12.7
 74
    0
 49
-12.7
 74
    0
  0
ENDTAB
  0
TABLE
  2
LAYER
  5
2
330
0
100
AcDbSymbolTable
 70
    1
  0
LAYER
  5
10
330
2
100
AcDbSymbolTableRecord
100
AcDbLayerTableRecord
  2
0
 70
    0
 62
    7
  6
CONTINUOUS
370
    5
390
F
  0
LAYER
  5
4A
330
2
100
AcDbSymbolTableRecord
100
AcDbLayerTableRecord
  2
Coordinate_System
 70
    0
 62
    1
  6
CONTINUOUS
370
   15
390
F
  0
LAYER
  5
4B
330
2
100
AcDbSymbolTableRecord
100
AcDbLayerTableRecord
  2
Dimensions
 70
    0
 62
    5
  6
CONTINUOUS
370
    5
390
F
  0
ENDTAB
  0
TABLE
  2
STYLE
  5
3
330
0
100
AcDbSymbolTable
 70
    3
  0
STYLE
  5
4C
330
2
100
AcDbSymbolTableRecord
100
AcDbTextStyleTableRecord
  2
STANDARD
 70
    0
 40
0
 41
1
 50
0
 71
    0
 42
1
  3
STANDARD
  4

  0
ENDTAB
  0
TABLE
  2
VIEW
  5
6
330
0
100
AcDbSymbolTable
 70
    0
  0
ENDTAB
  0
TABLE
  2
UCS
  5
7
330
0
100
AcDbSymbolTable
 70
    0
  0
ENDTAB
  0
TABLE
  2
APPID
  5
9
330
0
100
AcDbSymbolTable
 70
    1
  0
APPID
  5
12
330
9
100
AcDbSymbolTableRecord
100
AcDbRegAppTableRecord
  2
ACAD
 70
    0
  0
APPID
  5
4D
330
9
100
AcDbSymbolTableRecord
100
AcDbRegAppTableRecord
  2
LibreCad
 70
    0
  0
ENDTAB
  0
TABLE
  2
DIMSTYLE
  5
A
330
0
100
AcDbSymbolTable
 70
    1
100
AcDbDimStyleTable
 71
    1
  0
DIMSTYLE
105
4E
330
A
100
AcDbSymbolTableRecord
100
AcDbDimStyleTableRecord
  2
Standard
 70
    0
 40
1
 41
1
 42
0.625
 43
0.38
 44
1.25
 45
0
 46
0
 47
0
 48
0
 49
1
140
1
141
0.09
142
0
143
25.4
144
1
145
0
146
1
147
0.625
148
0
 71
    0
 72
    0
 73
    0
 74
    1
 75
    0
 76
    0
 77
    0
 78
    1
 79
    0
170
    0
171
    2
172
    0
173
    0
174
    0
175
    0
176
    0
177
    0
178
    0
179
    2
271
    4
272
    4
273
    2
274
    2
275
    0
276
    0
277
    2
278
    0
279
    0
280
    0
281
    0
282
    0
283
    1
284
    0
285
    0
286
    0
288
    0
289
    3
340
standard
341

371
    8
372
   -2
  0
ENDTAB
  0
TABLE
  2
BLOCK_RECORD
  5
1
330
0
100
AcDbSymbolTable
 70
    2
  0
BLOCK_RECORD
  5
1F
330
1
100
AcDbSymbolTableRecord
100
AcDbBlockTableRecord
  2
*Model_Space
 70
    0
280
    1
281
    0
  0
BLOCK_RECORD
  5
1E
330
1
100
AcDbSymbolTableRecord
100
AcDbBlockTableRecord
  2
*Paper_Space
 70
    0
280
    1
281
    0
  0
BLOCK_RECORD
  5
4F
330
1
100
AcDbSymbolTableRecord
100
AcDbBlockTableRecord
  2
*D3
 70
    0
280
    1
281
    0
  0
BLOCK_RECORD
  5
52
330
1
100
AcDbSymbolTableRecord
100
AcDbBlockTableRecord
  2
*D18
 70
    0
280
    1
281
    0
  0
BLOCK_RECORD
  5
55
330
1
100
AcDbSymbolTableRecord
100
AcDbBlockTableRecord
  2
*D12
 70
    0
280
    1
281
    0
  0
BLOCK_RECORD
  5
58
330
1
100
AcDbSymbolTableRecord
100
AcDbBlockTableRecord
  2
*D6
 70
    0
280
    1
281
    0
  0
BLOCK_RECORD
  5
5B
330
1
100
AcDbSymbolTableRecord
100
AcDbBlockTableRecord
  2
*D9
 70
    0
280
    1
281
    0
  0
BLOCK_RECORD
  5
5E
330
1
100
AcDbSymbolTableRecord
100
AcDbBlockTableRecord
  2
*D4
 70
    0
280
    1
281
    0
  0
BLOCK_RECORD
  5
61
330
1
100
AcDbSymbolTableRecord
100
AcDbBlockTableRecord
  2
*D17
 70
    0
280
    1
281
    0
  0
BLOCK_RECORD
  5
64
330
1
100
AcDbSymbolTableRecord
100
AcDbBlockTableRecord
  2
*D8
 70
    0
280
    1
281
    0
  0
BLOCK_RECORD
  5
67
330
1
100
AcDbSymbolTableRecord
100
AcDbBlockTableRecord
  2
*D10
 70
    0
280
    1
281
    0
  0
BLOCK_RECORD
  5
6A
330
1
100
AcDbSymbolTableRecord
100
AcDbBlockTableRecord
  2
*D14
 70
    0
280
    1
281
    0
  0
BLOCK_RECORD
  5
6D
330
1
100
AcDbSymbolTableRecord
100
AcDbBlockTableRecord
  2
*D11
 70
    0
280
    1
281
    0
  0
BLOCK_RECORD
  5
70
330
1
100
AcDbSymbolTableRecord
100
AcDbBlockTableRecord
  2
*D16
 70
    0
280
    1
281
    0
  0
BLOCK_RECORD
  5
73
330
1
100
AcDbSymbolTableRecord
100
AcDbBlockTableRecord
  2
*D13
 70
    0
280
    1
281
    0
  0
BLOCK_RECORD
  5
76
330
1
100
AcDbSymbolTableRecord
100
AcDbBlockTableRecord
  2
*D7
 70
    0
280
    1
281
    0
  0
BLOCK_RECORD
  5
79
330
1
100
AcDbSymbolTableRecord
100
AcDbBlockTableRecord
  2
*D2
 70
    0
280
    1
281
    0
  0
BLOCK_RECORD
  5
7C
330
1
100
AcDbSymbolTableRecord
100
AcDbBlockTableRecord
  2
*D5
 70
    0
280
    1
281
    0
  0
BLOCK_RECORD
  5
7F
330
1
100
AcDbSymbolTableRecord
100
AcDbBlockTableRecord
  2
*D15
 70
    0
280
    1
281
    0
  0
BLOCK_RECORD
  5
82
330
1
100
AcDbSymbolTableRecord
100
AcDbBlockTableRecord
  2
*D1
 70
    0
280
    1
281
    0
  0
BLOCK_RECORD
  5
85
330
1
100
AcDbSymbolTableRecord
100
AcDbBlockTableRecord
  2
*D19
 70
    0
280
    1
281
    0
  0
ENDTAB
  0
ENDSEC
  0
SECTION
  2
BLOCKS
  0
BLOCK
  5
20
330
1F
100
AcDbEntity
  8
0
100
AcDbBlockBegin
  2
*Model_Space
 70
    0
 10
0
 20
0
 30
0
  3
*Model_Space
  1

  0
ENDBLK
  5
21
330
1F
100
AcDbEntity
  8
0
100
AcDbBlockEnd
  0
BLOCK
  5
1C
330
1B
100
AcDbEntity
  8
0
100
AcDbBlockBegin
  2
*Paper_Space
 70
    0
 10
0
 20
0
 30
0
  3
*Paper_Space
  1

  0
ENDBLK
  5
1D
330
1F
100
AcDbEntity
  8
0
100
AcDbBlockEnd
  0
BLOCK
  5
50
330
4F
100
AcDbEntity
  8
0
100
AcDbBlockBegin
  2
*D3
 70
    1
 10
0
 20
0
  3
*D3
  1

  0
LINE
  5
88
100
AcDbEntity
  8
Dimensions
  6
CONTINUOUS
 62
    7
370
    0
100
AcDbLine
 10
73.5533679085202
 20
14.19853859982751
 11
77
 21
10
  0
LINE
  5
89
100
AcDbEntity
  8
Dimensions
  6
CONTINUOUS
 62
    7
370
    0
100
AcDbLine
 10
77
 20
10
 11
90
 21
10
  0
SOLID
  5
8A
100
AcDbEntity
  8
Dimensions
  6
CONTINUOUS
 62
    7
370
    0
100
AcDbTrace
 10
73.5533679085202
 20
14.19853859982751
 30
0
 11
74.31657126249929
 21
13.53126990800795
 31
0
 12
74.05916683045702
 22
13.31996343675091
 32
0
 13
74.05916683045702
 23
13.31996343675091
 33
0
  0
ENDBLK
  5
51
330
4F
100
AcDbEntity
  8
0
100
AcDbBlockEnd
  0
BLOCK
  5
53
330
52
100
AcDbEntity
  8
0
100
AcDbBlockBegin
  2
*D18
 70
    1
 10
0
 20
0
  3
*D18
  1

  0
LINE
  5
8B
100
AcDbEntity
  8
Dimensions
  6
CONTINUOUS
 62
    7
370
    0
100
AcDbLine
 10
72.56792478115985
 20
4.245130661796892
 11
78
 21
0
  0
SOLID
  5
8C
100
AcDbEntity
  8
Dimensions
  6
CONTINUOUS
 62
    7
370
    0
100
AcDbTrace
 10
72.56792478115985
 20
4.245130661796892
 30
0
 11
73.45838921628916
 21
3.760569049225955
 31
0
 12
73.25332302981688
 22
3.498166066019157
 32
0
 13
73.25332302981688
 23
3.498166066019157
 33
0
  0
LINE
  5
8D
100
AcDbEntity
  8
Dimensions
  6
CONTINUOUS
 62
    7
370
    0
100
AcDbLine
 10
78
 20
0
 11
92
 21
0
  0
ENDBLK
  5
54
330
52
100
AcDbEntity
  8
0
100
AcDbBlockEnd
  0
BLOCK
  5
56
330
55
100
AcDbEntity
  8
0
100
AcDbBlockBegin
  2
*D12
 70
    1
 10
0
 20
0
  3
*D12
  1

  0
LINE
  5
8E
100
AcDbEntity
  8
Coordinate_System
  6
CONTINUOUS
 62
    7
370
    0
100
AcDbLine
 10
60
 20
-9
 11
60
 21
15
  0
SOLID
  5
8F
100
AcDbEntity
  8
Coordinate_System
  6
CONTINUOUS
 62
    7
370
    0
100
AcDbTrace
 10
60
 20
-9
 30
0
 11
59.83348613689086
 21
-8
 31
0
 12
60.16651386310914
 22
-8
 32
0
 13
60.16651386310914
 23
-8
 33
0
  0
ENDBLK
  5
57
330
55
100
AcDbEntity
  8
0
100
AcDbBlockEnd
  0
BLOCK
  5
59
330
58
100
AcDbEntity
  8
0
100
AcDbBlockBegin
  2
*D6
 70
    1
 10
0
 20
0
  3
*D6
  1

  0
LINE
  5
90
100
AcDbEntity
  8
Dimensions
  6
ByBlock
 62
    0
370
    9
100
AcDbLine
 10
-26
 20
-1.57749317235527
 11
-26
 21
8.755751761055592
  0
MTEXT
  5
91
100
AcDbEntity
  8
Dimensions
  6
CONTINUOUS
 62
    0
370
   -2
100
AcDbMText
 10
-27.125
 20
3.589129294350161
 30
0
 40
1
 41
8.00038097202475
 71
    5
 72
    1
  1
side_height
  7
standard
210
0
220
0
230
1
 50
90
 73
    2
 44
1
  0
SOLID
  5
92
100
AcDbEntity
  8
Dimensions
  6
ByBlock
 62
    0
370
    9
100
AcDbTrace
 10
-26
 20
-1.57749317235527
 30
0
 11
-26.16651386310913
 21
-0.5774931723552701
 31
0
 12
-25.83348613689086
 22
-0.5774931723552701
 32
0
 13
-25.83348613689086
 23
-0.5774931723552701
 33
0
  0
SOLID
  5
93
100
AcDbEntity
  8
Dimensions
  6
ByBlock
 62
    0
370
    9
100
AcDbTrace
 10
-26
 20
8.755751761055592
 30
0
 11
-25.83348613689087
 21
7.755751761055592
 31
0
 12
-26.16651386310913
 22
7.755751761055592
 32
0
 13
-26.16651386310913
 23
7.755751761055592
 33
0
  0
LINE
  5
94
100
AcDbEntity
  8
Dimensions
  6
ByBlock
 62
    0
370
   -2
100
AcDbLine
 10
-18.31709285986896
 20
-1.577493172355268
 11
-27.25
 21
-1.57749317235527
  0
LINE
  5
95
100
AcDbEntity
  8
Dimensions
  6
ByBlock
 62
    0
370
   -2
100
AcDbLine
 10
-18.31709285986896
 20
8.755751761055592
 11
-27.25
 21
8.755751761055592
  0
ENDBLK
  5
5A
330
58
100
AcDbEntity
  8
0
100
AcDbBlockEnd
  0
BLOCK
  5
5C
330
5B
100
AcDbEntity
  8
0
100
AcDbBlockBegin
  2
*D9
 70
    1
 10
0
 20
0
  3
*D9
  1

  0
LINE
  5
96
100
AcDbEntity
  8
Dimensions
  6
ByBlock
 62
    0
370
   -2
100
AcDbLine
 10
17.8026684402431
 20
-0.9623525046824852
 11
22.51599625602573
 21
25.25826157439318
  0
LINE
  5
97
100
AcDbEntity
  8
Dimensions
  6
ByBlock
 62
    0
370
   -2
100
AcDbLine
 10
-17.80266844024315
 20
-0.9623525046824887
 11
-22.51599625602577
 21
25.25826157439317
  0
ARC
  5
98
100
AcDbEntity
  8
Dimensions
  6
ByBlock
 62
    0
370
    9
100
AcDbCircle
 10
0
 20
-100
 40
126.0158720161869
100
AcDbArc
 50
79.80953629509546
 51
100.1904637049046
  0
SOLID
  5
99
100
AcDbEntity
  8
Dimensions
  6
ByBlock
 62
    0
370
    9
100
AcDbTrace
 10
22.29484509527737
 20
24.02798023904762
 30
0
 11
21.28111650414264
 21
24.03699190501679
 31
0
 12
21.33873509075008
 22
24.36499733928195
 32
0
 13
21.33873509075008
 23
24.36499733928195
 33
0
  0
SOLID
  5
9A
100
AcDbEntity
  8
Dimensions
  6
ByBlock
 62
    0
370
    9
100
AcDbTrace
 10
-22.29484509527741
 20
24.02798023904761
 30
0
 11
-21.33873509075012
 21
24.36499733928193
 31
0
 12
-21.28111650414268
 22
24.03699190501677
 32
0
 13
-21.28111650414268
 23
24.03699190501677
 33
0
  0
MTEXT
  5
9B
100
AcDbEntity
  8
Dimensions
  6
CONTINUOUS
 62
    0
370
   -2
100
AcDbMText
 10
-2.022662758832488e-14
 20
26.64087201618692
 30
0
 40
1
 41
3.222222222222362
 71
    8
 72
    1
  1
angle
  7
standard
210
0
220
0
230
1
 50
360
 73
    2
 44
1
  0
ENDBLK
  5
5D
330
5B
100
AcDbEntity
  8
0
100
AcDbBlockEnd
  0
BLOCK
  5
5F
330
5E
100
AcDbEntity
  8
0
100
AcDbBlockBegin
  2
*D4
 70
    1
 10
0
 20
0
  3
*D4
  1

  0
LINE
  5
9C
100
AcDbEntity
  8
Dimensions
  6
CONTINUOUS
 62
    7
370
    0
100
AcDbLine
 10
16.19633593822287
 20
9.296272346404159
 11
20
 21
10
  0
LINE
  5
9D
100
AcDbEntity
  8
Dimensions
  6
CONTINUOUS
 62
    7
370
    0
100
AcDbLine
 10
20
 20
10
 11
31
 21
10
  0
LINE
  5
9E
100
AcDbEntity
  8
Dimensions
  6
CONTINUOUS
 62
    7
370
    0
100
AcDbLine
 10
31
 20
10
 11
31
 21
10
  0
LINE
  5
9F
100
AcDbEntity
  8
Dimensions
  6
CONTINUOUS
 62
    7
370
    0
100
AcDbLine
 10
31
 20
10
 11
31
 21
10
  0
SOLID
  5
A0
100
AcDbEntity
  8
Dimensions
  6
CONTINUOUS
 62
    7
370
    0
100
AcDbTrace
 10
16.19633593822287
 20
9.296272346404159
 30
0
 11
17.14935508514478
 21
9.641933122610766
 31
0
 12
17.20994137012361
 22
9.314462866705627
 32
0
 13
17.20994137012361
 23
9.314462866705627
 33
0
  0
ENDBLK
  5
60
330
5E
100
AcDbEntity
  8
0
100
AcDbBlockEnd
  0
BLOCK
  5
62
330
61
100
AcDbEntity
  8
0
100
AcDbBlockBegin
  2
*D17
 70
    1
 10
0
 20
0
  3
*D17
  1

  0
LINE
  5
A1
100
AcDbEntity
  8
Dimensions
  6
ByBlock
 62
    0
370
    9
100
AcDbLine
 10
-22
 20
3.552713678800501e-15
 11
-22
 21
12
  0
MTEXT
  5
A2
100
AcDbEntity
  8
Dimensions
  6
CONTINUOUS
 62
    0
370
   -2
100
AcDbMText
 10
-23.125
 20
6.000000000000003
 30
0
 40
1
 41
11.88888991746347
 71
    5
 72
    1
  1
center_thickness
  7
standard
210
0
220
0
230
1
 50
90
 73
    2
 44
1
  0
SOLID
  5
A3
100
AcDbEntity
  8
Dimensions
  6
ByBlock
 62
    0
370
    9
100
AcDbTrace
 10
-22
 20
3.552713678800501e-15
 30
0
 11
-22.16651386310913
 21
1.000000000000004
 31
0
 12
-21.83348613689086
 22
1.000000000000004
 32
0
 13
-21.83348613689086
 23
1.000000000000004
 33
0
  0
SOLID
  5
A4
100
AcDbEntity
  8
Dimensions
  6
ByBlock
 62
    0
370
    9
100
AcDbTrace
 10
-22
 20
12
 30
0
 11
-21.83348613689087
 21
11
 31
0
 12
-22.16651386310913
 22
11
 32
0
 13
-22.16651386310913
 23
11
 33
0
  0
LINE
  5
A5
100
AcDbEntity
  8
Dimensions
  6
ByBlock
 62
    0
370
   -2
100
AcDbLine
 10
-0.625
 20
7.654042494670958e-17
 11
-23.25
 21
3.70579452869392e-15
  0
LINE
  5
A6
100
AcDbEntity
  8
Dimensions
  6
ByBlock
 62
    0
370
   -2
100
AcDbLine
 10
-0.625
 20
12
 11
-23.25
 21
12
  0
ENDBLK
  5
63
330
61
100
AcDbEntity
  8
0
100
AcDbBlockEnd
  0
BLOCK
  5
65
330
64
100
AcDbEntity
  8
0
100
AcDbBlockBegin
  2
*D8
 70
    1
 10
0
 20
0
  3
*D8
  1

  0
LINE
  5
A7
100
AcDbEntity
  8
Dimensions
  6
ByBlock
 62
    0
370
   -2
100
AcDbLine
 10
78.64489831434032
 20
3.96638106545746
 11
82.46213785088574
 21
25.25180582797124
  0
LINE
  5
A8
100
AcDbEntity
  8
Dimensions
  6
ByBlock
 62
    0
370
   -2
100
AcDbLine
 10
41.35510168565965
 20
3.966381065457446
 11
37.53786214911423
 21
25.25180582797122
  0
ARC
  5
A9
100
AcDbEntity
  8
Dimensions
  6
ByBlock
 62
    0
370
    9
100
AcDbCircle
 10
60
 20
-100
 40
126
100
AcDbArc
 50
79.83288984647122
 51
100.1671101535288
  0
SOLID
  5
AA
100
AcDbEntity
  8
Dimensions
  6
ByBlock
 62
    0
370
    9
100
AcDbTrace
 10
82.24148816669236
 20
24.02143445441553
 30
0
 11
81.22775598234577
 21
24.0300324208851
 31
0
 12
81.2852407063958
 22
24.35806134176099
 32
0
 13
81.2852407063958
 23
24.35806134176099
 33
0
  0
SOLID
  5
AB
100
AcDbEntity
  8
Dimensions
  6
ByBlock
 62
    0
370
    9
100
AcDbTrace
 10
37.7585118333076
 20
24.02143445441551
 30
0
 11
38.71475929360417
 21
24.35806134176098
 31
0
 12
38.7722440176542
 22
24.03003242088509
 32
0
 13
38.7722440176542
 23
24.03003242088509
 33
0
  0
MTEXT
  5
AC
100
AcDbEntity
  8
Dimensions
  6
CONTINUOUS
 62
    0
370
   -2
100
AcDbMText
 10
59.99999999999998
 20
26.625
 30
0
 40
1
 41
3.222222222222362
 71
    8
 72
    1
  1
angle
  7
standard
210
0
220
0
230
1
 50
360
 73
    2
 44
1
  0
ENDBLK
  5
66
330
64
100
AcDbEntity
  8
0
100
AcDbBlockEnd
  0
BLOCK
  5
68
330
67
100
AcDbEntity
  8
0
100
AcDbBlockBegin
  2
*D10
 70
    1
 10
0
 20
0
  3
*D10
  1

  0
LINE
  5
AD
100
AcDbEntity
  8
Dimensions
  6
ByBlock
 62
    0
370
    9
100
AcDbLine
 10
41.46542652775634
 20
22
 11
78.53457347224364
 21
22
  0
MTEXT
  5
AE
100
AcDbEntity
  8
Dimensions
  6
CONTINUOUS
 62
    0
370
   -2
100
AcDbMText
 10
59.99999999999999
 20
23.125
 30
0
 40
1
 41
3.222222222222269
 71
    5
 72
    1
  1
width
  7
standard
210
0
220
0
230
1
 50
0
 73
    2
 44
1
  0
SOLID
  5
AF
100
AcDbEntity
  8
Dimensions
  6
ByBlock
 62
    0
370
    9
100
AcDbTrace
 10
41.46542652775634
 20
22
 30
0
 11
42.46542652775634
 21
22.16651386310913
 31
0
 12
42.46542652775634
 22
21.83348613689086
 32
0
 13
42.46542652775634
 23
21.83348613689086
 33
0
  0
SOLID
  5
B0
100
AcDbEntity
  8
Dimensions
  6
ByBlock
 62
    0
370
    9
100
AcDbTrace
 10
78.53457347224364
 20
22
 30
0
 11
77.53457347224364
 21
21.83348613689087
 31
0
 12
77.53457347224364
 22
22.16651386310913
 32
0
 13
77.53457347224364
 23
22.16651386310913
 33
0
  0
LINE
  5
B1
100
AcDbEntity
  8
Dimensions
  6
ByBlock
 62
    0
370
   -2
100
AcDbLine
 10
41.46542652775634
 20
14.12156200168357
 11
41.46542652775634
 21
23.25
  0
LINE
  5
B2
100
AcDbEntity
  8
Dimensions
  6
ByBlock
 62
    0
370
   -2
100
AcDbLine
 10
78.53457347224364
 20
14.12156200168357
 11
78.53457347224364
 21
23.25
  0
ENDBLK
  5
69
330
67
100
AcDbEntity
  8
0
100
AcDbBlockEnd
  0
BLOCK
  5
6B
330
6A
100
AcDbEntity
  8
0
100
AcDbBlockBegin
  2
*D14
 70
    1
 10
0
 20
0
  3
*D14
  1

  0
LINE
  5
B3
100
AcDbEntity
  8
Dimensions
  6
CONTINUOUS
 62
    7
370
    0
100
AcDbLine
 10
9.962345177991773
 20
-0.4974790341745035
 11
19
 21
3
  0
LINE
  5
B4
100
AcDbEntity
  8
Dimensions
  6
CONTINUOUS
 62
    7
370
    0
100
AcDbLine
 10
19
 20
3
 11
29
 21
3
  0
SOLID
  5
B5
100
AcDbEntity
  8
Dimensions
  6
CONTINUOUS
 62
    7
370
    0
100
AcDbTrace
 10
9.962345177991773
 20
-0.4974790341745035
 30
0
 11
10.83485084253423
 21
0.01871931137578137
 31
0
 12
10.95504295676185
 22
-0.2918629194546513
 32
0
 13
10.95504295676185
 23
-0.2918629194546513
 33
0
  0
ENDBLK
  5
6C
330
6A
100
AcDbEntity
  8
0
100
AcDbBlockEnd
  0
BLOCK
  5
6E
330
6D
100
AcDbEntity
  8
0
100
AcDbBlockBegin
  2
*D11
 70
    1
 10
0
 20
0
  3
*D11
  1

  0
LINE
  5
B6
100
AcDbEntity
  8
Coordinate_System
  6
CONTINUOUS
 62
    7
370
    0
100
AcDbLine
 10
36
 20
15
 11
60
 21
15
  0
SOLID
  5
B7
100
AcDbEntity
  8
Coordinate_System
  6
CONTINUOUS
 62
    7
370
    0
100
AcDbTrace
 10
36
 20
15
 30
0
 11
37
 21
15.16651386310914
 31
0
 12
37
 22
14.83348613689086
 32
0
 13
37
 23
14.83348613689086
 33
0
  0
ENDBLK
  5
6F
330
6D
100
AcDbEntity
  8
0
100
AcDbBlockEnd
  0
BLOCK
  5
71
330
70
100
AcDbEntity
  8
0
100
AcDbBlockBegin
  2
*D16
 70
    1
 10
0
 20
0
  3
*D16
  1

  0
LINE
  5
B8
100
AcDbEntity
  8
Dimensions
  6
ByBlock
 62
    0
370
    9
100
AcDbLine
 10
-2
 20
0
 11
-2
 21
11
  0
MTEXT
  5
B9
100
AcDbEntity
  8
Dimensions
  6
CONTINUOUS
 62
    0
370
   -2
100
AcDbMText
 10
-3.125
 20
5.5
 30
0
 40
1
 41
6.000001028574489
 71
    5
 72
    1
  1
thickness
  7
standard
210
0
220
0
230
1
 50
90
 73
    2
 44
1
  0
SOLID
  5
BA
100
AcDbEntity
  8
Dimensions
  6
ByBlock
 62
    0
370
    9
100
AcDbTrace
 10
-2
 20
0
 30
0
 11
-2.166513863109136
 21
1
 31
0
 12
-1.833486136890864
 22
1
 32
0
 13
-1.833486136890864
 23
1
 33
0
  0
SOLID
  5
BB
100
AcDbEntity
  8
Dimensions
  6
ByBlock
 62
    0
370
    9
100
AcDbTrace
 10
-2
 20
11
 30
0
 11
-1.833486136890864
 21
10
 31
0
 12
-2.166513863109136
 22
10
 32
0
 13
-2.166513863109136
 23
10
 33
0
  0
LINE
  5
BC
100
AcDbEntity
  8
Dimensions
  6
ByBlock
 62
    0
370
   -2
100
AcDbLine
 10
-0.625
 20
7.654042494670958e-17
 11
-3.25
 21
1.530808498934192e-16
  0
LINE
  5
BD
100
AcDbEntity
  8
Dimensions
  6
ByBlock
 62
    0
370
   -2
100
AcDbLine
 10
-0.625
 20
11
 11
-3.25
 21
11
  0
ENDBLK
  5
72
330
70
100
AcDbEntity
  8
0
100
AcDbBlockEnd
  0
BLOCK
  5
74
330
73
100
AcDbEntity
  8
0
100
AcDbBlockBegin
  2
*D13
 70
    1
 10
0
 20
0
  3
*D13
  1

  0
LINE
  5
BE
100
AcDbEntity
  8
Coordinate_System
  6
CONTINUOUS
 62
    7
370
    0
100
AcDbLine
 10
0
 20
24
 11
0
 21
0
  0
SOLID
  5
BF
100
AcDbEntity
  8
Coordinate_System
  6
CONTINUOUS
 62
    7
370
    0
100
AcDbTrace
 10
0
 20
24
 30
0
 11
0.1665138631091361
 21
23
 31
0
 12
-0.1665138631091362
 22
23
 32
0
 13
-0.1665138631091362
 23
23
 33
0
  0
ENDBLK
  5
75
330
73
100
AcDbEntity
  8
0
100
AcDbBlockEnd
  0
BLOCK
  5
77
330
76
100
AcDbEntity
  8
0
100
AcDbBlockBegin
  2
*D7
 70
    1
 10
0
 20
0
  3
*D7
  1

  0
LINE
  5
C0
100
AcDbEntity
  8
Dimensions
  6
ByBlock
 62
    0
370
    9
100
AcDbLine
 10
94
 20
3.351195378679606
 11
94
 21
13.49656200168357
  0
MTEXT
  5
C1
100
AcDbEntity
  8
Dimensions
  6
CONTINUOUS
 62
    0
370
   -2
100
AcDbMText
 10
92.875
 20
8.423878690181589
 30
0
 40
1
 41
8.00038097202475
 71
    5
 72
    1
  1
side_height
  7
standard
210
0
220
0
230
1
 50
90
 73
    2
 44
1
  0
SOLID
  5
C2
100
AcDbEntity
  8
Dimensions
  6
ByBlock
 62
    0
370
    9
100
AcDbTrace
 10
94
 20
3.351195378679606
 30
0
 11
93.83348613689087
 21
4.351195378679606
 31
0
 12
94.16651386310913
 22
4.351195378679606
 32
0
 13
94.16651386310913
 23
4.351195378679606
 33
0
  0
SOLID
  5
C3
100
AcDbEntity
  8
Dimensions
  6
ByBlock
 62
    0
370
    9
100
AcDbTrace
 10
94
 20
13.49656200168357
 30
0
 11
94.16651386310913
 21
12.49656200168357
 31
0
 12
93.83348613689087
 22
12.49656200168357
 32
0
 13
93.83348613689087
 23
12.49656200168357
 33
0
  0
LINE
  5
C4
100
AcDbEntity
  8
Dimensions
  6
ByBlock
 62
    0
370
   -2
100
AcDbLine
 10
79.15957347224364
 20
3.351195378679606
 11
95.25
 21
3.351195378679606
  0
LINE
  5
C5
100
AcDbEntity
  8
Dimensions
  6
ByBlock
 62
    0
370
   -2
100
AcDbLine
 10
79.15957347224364
 20
13.49656200168357
 11
95.25
 21
13.49656200168357
  0
ENDBLK
  5
78
330
76
100
AcDbEntity
  8
0
100
AcDbBlockEnd
  0
BLOCK
  5
7A
330
79
100
AcDbEntity
  8
0
100
AcDbBlockBegin
  2
*D2
 70
    1
 10
0
 20
0
  3
*D2
  1

  0
ENDBLK
  5
7B
330
79
100
AcDbEntity
  8
0
100
AcDbBlockEnd
  0
BLOCK
  5
7D
330
7C
100
AcDbEntity
  8
0
100
AcDbBlockBegin
  2
*D5
 70
    1
 10
0
 20
0
  3
*D5
  1

  0
LINE
  5
C6
100
AcDbEntity
  8
Dimensions
  6
ByBlock
 62
    0
370
    9
100
AcDbLine
 10
35
 20
5.000000000000004
 11
35
 21
15
  0
MTEXT
  5
C7
100
AcDbEntity
  8
Dimensions
  6
CONTINUOUS
 62
    0
370
   -2
100
AcDbMText
 10
33.875
 20
25.87500102857451
 30
0
 40
1
 41
20.50000205714903
 71
    5
 72
    1
  1
thickness = center_thickness
  7
standard
210
0
220
0
230
1
 50
90
 73
    2
 44
1
  0
SOLID
  5
C8
100
AcDbEntity
  8
Dimensions
  6
ByBlock
 62
    0
370
    9
100
AcDbTrace
 10
35
 20
5.000000000000004
 30
0
 11
34.83348613689086
 21
6.000000000000004
 31
0
 12
35.16651386310914
 22
6.000000000000004
 32
0
 13
35.16651386310914
 23
6.000000000000004
 33
0
  0
SOLID
  5
C9
100
AcDbEntity
  8
Dimensions
  6
ByBlock
 62
    0
370
    9
100
AcDbTrace
 10
35
 20
15
 30
0
 11
35.16651386310914
 21
14
 31
0
 12
34.83348613689086
 22
14
 32
0
 13
34.83348613689086
 23
14
 33
0
  0
LINE
  5
CA
100
AcDbEntity
  8
Dimensions
  6
ByBlock
 62
    0
370
   -2
100
AcDbLine
 10
59.375
 20
5
 11
33.75
 21
5.000000000000004
  0
LINE
  5
CB
100
AcDbEntity
  8
Dimensions
  6
ByBlock
 62
    0
370
   -2
100
AcDbLine
 10
59.375
 20
15
 11
33.75
 21
15
  0
ENDBLK
  5
7E
330
7C
100
AcDbEntity
  8
0
100
AcDbBlockEnd
  0
BLOCK
  5
80
330
7F
100
AcDbEntity
  8
0
100
AcDbBlockBegin
  2
*D15
 70
    1
 10
0
 20
0
  3
*D15
  1

  0
LINE
  5
CC
100
AcDbEntity
  8
Coordinate_System
  6
CONTINUOUS
 62
    7
370
    0
100
AcDbLine
 10
24
 20
0
 11
0
 21
0
  0
SOLID
  5
CD
100
AcDbEntity
  8
Coordinate_System
  6
CONTINUOUS
 62
    7
370
    0
100
AcDbTrace
 10
24
 20
0
 30
0
 11
23
 21
-0.1665138631091362
 31
0
 12
23
 22
0.1665138631091362
 32
0
 13
23
 23
0.1665138631091362
 33
0
  0
ENDBLK
  5
81
330
7F
100
AcDbEntity
  8
0
100
AcDbBlockEnd
  0
BLOCK
  5
83
330
82
100
AcDbEntity
  8
0
100
AcDbBlockBegin
  2
*D1
 70
    1
 10
0
 20
0
  3
*D1
  1

  0
LINE
  5
CE
100
AcDbEntity
  8
Dimensions
  6
ByBlock
 62
    0
370
    9
100
AcDbLine
 10
-17.69209285986895
 20
-10
 11
17.69209285986895
 21
-10
  0
MTEXT
  5
CF
100
AcDbEntity
  8
Dimensions
  6
CONTINUOUS
 62
    0
370
   -2
100
AcDbMText
 10
0
 20
-11
 30
0
 40
1
 41
3.222222222222269
 71
    5
 72
    1
  1
width
  7
standard
210
0
220
0
230
1
 50
0
 73
    2
 44
1
  0
SOLID
  5
D0
100
AcDbEntity
  8
Dimensions
  6
ByBlock
 62
    0
370
    9
100
AcDbTrace
 10
-17.69209285986895
 20
-10
 30
0
 11
-16.69209285986895
 21
-9.833486136890864
 31
0
 12
-16.69209285986895
 22
-10.16651386310914
 32
0
 13
-16.69209285986895
 23
-10.16651386310914
 33
0
  0
SOLID
  5
D1
100
AcDbEntity
  8
Dimensions
  6
ByBlock
 62
    0
370
    9
100
AcDbTrace
 10
17.69209285986895
 20
-10
 30
0
 11
16.69209285986895
 21
-10.16651386310914
 31
0
 12
16.69209285986895
 22
-9.833486136890864
 32
0
 13
16.69209285986895
 23
-9.833486136890864
 33
0
  0
LINE
  5
D2
100
AcDbEntity
  8
Dimensions
  6
ByBlock
 62
    0
370
   -2
100
AcDbLine
 10
-17.69209285986895
 20
2.873743230233352
 11
-17.69209285986895
 21
-11.25
  0
LINE
  5
D3
100
AcDbEntity
  8
Dimensions
  6
ByBlock
 62
    0
370
   -2
100
AcDbLine
 10
17.69209285986895
 20
2.873743230233352
 11
17.69209285986895
 21
-11.25
  0
ENDBLK
  5
84
330
82
100
AcDbEntity
  8
0
100
AcDbBlockEnd
  0
BLOCK
  5
86
330
85
100
AcDbEntity
  8
0
100
AcDbBlockBegin
  2
*D19
 70
    1
 10
0
 20
0
  3
*D19
  1

  0
LINE
  5
D4
100
AcDbEntity
  8
Dimensions
  6
ByBlock
 62
    0
370
   -2
100
AcDbLine
 10
40.00688196758261
 20
13.25045631847064
 11
32.06638051534753
 21
11.89310564287489
  0
LINE
  5
D5
100
AcDbEntity
  8
Dimensions
  6
ByBlock
 62
    0
370
   -2
100
AcDbLine
 10
41.69184319233204
 20
3.393433153686518
 11
33.75134174009695
 21
2.036082478090773
  0
LINE
  5
D6
100
AcDbEntity
  8
Dimensions
  6
ByBlock
 62
    0
370
    9
100
AcDbLine
 10
33.29850841094554
 20
12.10372579596857
 11
34.98346963569497
 21
2.246702631184451
  0
MTEXT
  5
D7
100
AcDbEntity
  8
Dimensions
  6
CONTINUOUS
 62
    0
370
   -2
100
AcDbMText
 10
38.28052637944946
 20
-10.36436781167139
 30
0
 40
1
 41
24.72260525139587
 71
    5
 72
    1
  1
side_thickness = center_thickness 
  7
standard
210
0
220
0
230
1
 50
279.7003919439458
 73
    2
 44
1
  0
SOLID
  5
D8
100
AcDbEntity
  8
Dimensions
  6
ByBlock
 62
    0
370
    9
100
AcDbTrace
 10
33.29850841094554
 20
12.10372579596857
 30
0
 11
33.63113763401293
 21
11.14608041976237
 31
0
 12
33.30287143282804
 22
11.08996653921795
 32
0
 13
33.30287143282804
 23
11.08996653921795
 33
0
  0
SOLID
  5
D9
100
AcDbEntity
  8
Dimensions
  6
ByBlock
 62
    0
370
    9
100
AcDbTrace
 10
34.98346963569497
 20
2.246702631184451
 30
0
 11
34.65084041262759
 21
3.204348007390651
 31
0
 12
34.97910661381248
 22
3.260461887935077
 32
0
 13
34.97910661381248
 23
3.260461887935077
 33
0
  0
ENDBLK
  5
87
330
85
100
AcDbEntity
  8
0
100
AcDbBlockEnd
  0
ENDSEC
  0
SECTION
  2
ENTITIES
  0
LINE
  5
DA
100
AcDbEntity
  8
0
  6
ByLayer
 62
  256
370
   -1
100
AcDbLine
 10
22
 20
-5
 11
-22
 21
-5
  0
LINE
  5
DB
100
AcDbEntity
  8
0
  6
ByLayer
 62
  256
370
   -1
100
AcDbLine
 10
-22
 20
20
 11
22
 21
20
  0
MTEXT
  5
DC
100
AcDbEntity
  8
Coordinate_System
  6
ByLayer
 62
  256
370
   -1
100
AcDbMText
 10
24
 20
0
 30
0
 40
1
 41
0.4444444444444444
 71
    1
 72
    1
  1
x
  7
STANDARD
210
0
220
0
230
1
 50
0
 73
    2
 44
1
  0
MTEXT
  5
DD
100
AcDbEntity
  8
Coordinate_System
  6
ByLayer
 62
  256
370
   -1
100
AcDbMText
 10
-1
 20
25
 30
0
 40
1
 41
0.4444444444444444
 71
    1
 72
    1
  1
y
  7
STANDARD
210
0
220
0
230
1
 50
0
 73
    2
 44
1
  0
ARC
  5
DE
100
AcDbEntity
  8
0
  6
ByLayer
 62
  256
370
   -1
100
AcDbCircle
 10
0
 20
-100
 40
100
100
AcDbArc
 50
77.29096700560457
 51
102.7090329943954
  0
ARC
  5
DF
100
AcDbEntity
  8
0
  6
ByLayer
 62
  256
370
   -1
100
AcDbCircle
 10
0
 20
-100
 40
115
100
AcDbArc
 50
78.97108576605167
 51
101.0289142339483
  0
LINE
  5
E0
100
AcDbEntity
  8
0
  6
ByLayer
 62
  256
370
   -1
100
AcDbLine
 10
-22
 20
-5
 11
-22
 21
-2.450012813942417
  0
LINE
  5
E1
100
AcDbEntity
  8
0
  6
ByLayer
 62
  256
370
   -1
100
AcDbLine
 10
22
 20
-2.450012813942404
 11
22
 21
-5
  0
LINE
  5
E2
100
AcDbEntity
  8
0
  6
ByLayer
 62
  256
370
   -1
100
AcDbLine
 10
-22
 20
20
 11
-22
 21
12.87603820120549
  0
LINE
  5
E3
100
AcDbEntity
  8
0
  6
ByLayer
 62
  256
370
   -1
100
AcDbLine
 10
22
 20
20
 11
22
 21
12.87603820120549
  0
ARC
  5
E4
100
AcDbEntity
  8
0
  6
ByLayer
 62
  256
370
   -1
100
AcDbCircle
 10
60
 20
-100
 40
110
100
AcDbArc
 50
80.29960805605421
 51
99.7003919439458
  0
LINE
  5
E5
100
AcDbEntity
  8
0
  6
ByLayer
 62
  256
370
   -1
100
AcDbLine
 10
82
 20
-5
 11
38
 21
-5
  0
LINE
  5
E6
100
AcDbEntity
  8
0
  6
ByLayer
 62
  256
370
   -1
100
AcDbLine
 10
38
 20
20
 11
82
 21
20
  0
ARC
  5
E7
100
AcDbEntity
  8
0
  6
ByLayer
 62
  256
370
   -1
100
AcDbCircle
 10
60
 20
-100
 40
100
100
AcDbArc
 50
77.29096700560457
 51
102.7090329943954
  0
ARC
  5
E8
100
AcDbEntity
  8
0
  6
ByLayer
 62
  256
370
   -1
100
AcDbCircle
 10
60
 20
-100
 40
115
100
AcDbArc
 50
78.97108576605167
 51
101.0289142339483
  0
LINE
  5
E9
100
AcDbEntity
  8
0
  6
ByLayer
 62
  256
370
   -1
100
AcDbLine
 10
38
 20
-5
 11
38
 21
-2.450012813942417
  0
LINE
  5
EA
100
AcDbEntity
  8
0
  6
ByLayer
 62
  256
370
   -1
100
AcDbLine
 10
82
 20
-2.450012813942404
 11
82
 21
-5
  0
LINE
  5
EB
100
AcDbEntity
  8
0
  6
ByLayer
 62
  256
370
   -1
100
AcDbLine
 10
38
 20
20
 11
38
 21
12.87603820120549
  0
LINE
  5
EC
100
AcDbEntity
  8
0
  6
ByLayer
 62
  256
370
   -1
100
AcDbLine
 10
82
 20
20
 11
82
 21
12.87603820120549
  0
MTEXT
  5
ED
100
AcDbEntity
  8
0
  6
ByLayer
 62
  256
370
   -1
100
AcDbMText
 10
1
 20
3
 30
0
 40
1
 41
3.555555343553453
 71
    1
 72
    1
  1
South
  7
STANDARD
210
0
220
0
230
1
 50
0
 73
    2
 44
1
  0
MTEXT
  5
EE
100
AcDbEntity
  8
0
  6
ByLayer
 62
  256
370
   -1
100
AcDbMText
 10
61
 20
13
 30
0
 40
1
 41
3.444444444444491
 71
    1
 72
    1
  1
North
  7
STANDARD
210
0
220
0
230
1
 50
0
 73
    2
 44
1
  0
MTEXT
  5
EF
100
AcDbEntity
  8
0
  6
ByLayer
 62
  256
370
   -1
100
AcDbMText
 10
61
 20
8
 30
0
 40
1
 41
3.555555343553453
 71
    1
 72
    1
  1
South
  7
STANDARD
210
0
220
0
230
1
 50
0
 73
    2
 44
1
  0
DIMENSION
  5
F0
100
AcDbEntity
  8
Dimensions
  6
ByLayer
 62
  256
370
   -1
100
AcDbDimension
  2
*D1
 10
18
 20
-10
 30
0
 11
0
 21
-11
 31
0
 70
   32
  1
width
 71
    5
 72
    0
  3
Standard
 53
0
210
0
220
0
230
1
100
AcDbAlignedDimension
 13
-17.69209285986895
 23
3.498743230233352
 33
0
 14
17.69209285986895
 24
3.498743230233352
 34
0
100
AcDbRotatedDimension
  0
MTEXT
  5
F1
100
AcDbEntity
  8
Coordinate_System
  6
ByLayer
 62
  256
370
   -1
100
AcDbMText
 10
36
 20
17
 30
0
 40
1
 41
0.4444444444444444
 71
    1
 72
    1
  1
x
  7
STANDARD
210
0
220
0
230
1
 50
0
 73
    2
 44
1
  0
MTEXT
  5
F2
100
AcDbEntity
  8
Coordinate_System
  6
ByLayer
 62
  256
370
   -1
100
AcDbMText
 10
61
 20
-8
 30
0
 40
1
 41
0.4444444444444444
 71
    1
 72
    1
  1
y
  7
STANDARD
210
0
220
0
230
1
 50
0
 73
    2
 44
1
  0
MTEXT
  5
F3
100
AcDbEntity
  8
0
  6
ByLayer
 62
  256
370
   -1
100
AcDbMText
 10
1.000000212002103
 20
18
 30
0
 40
1
 41
8.527778292065022
 71
    1
 72
    1
  1
Outer stator
  7
STANDARD
210
0
220
0
230
1
 50
0
 73
    2
 44
1
  0
MTEXT
  5
F4
100
AcDbEntity
  8
0
  6
ByLayer
 62
  256
370
   -1
100
AcDbMText
 10
61.00000021200211
 20
18
 30
0
 40
1
 41
7.749999999999999
 71
    1
 72
    1
  1
Outer rotor
  7
STANDARD
210
0
220
0
230
1
 50
0
 73
    2
 44
1
  0
MTEXT
  5
F5
100
AcDbEntity
  8
0
  6
ByLayer
 62
  256
370
   -1
100
AcDbMText
 10
1.111111111111111
 20
-2
 30
0
 40
1
 41
7.305555555555648
 71
    1
 72
    1
  1
Inner rotor
  7
STANDARD
210
0
220
0
230
1
 50
0
 73
    2
 44
1
  0
MTEXT
  5
F6
100
AcDbEntity
  8
0
  6
ByLayer
 62
  256
370
   -1
100
AcDbMText
 10
61.11111111111111
 20
-2
 30
0
 40
1
 41
8.08333384762067
 71
    1
 72
    1
  1
Inner stator
  7
STANDARD
210
0
220
0
230
1
 50
0
 73
    2
 44
1
  0
LEADER
  5
F7
100
AcDbEntity
  8
0
  6
ByLayer
 62
  256
370
   -1
100
AcDbLeader
  3
Standard
 71
    1
 72
    0
 73
    3
 74
    0
 75
    0
 40
1
 41
10
 76
0
 76
0
  0
LEADER
  5
F8
100
AcDbEntity
  8
Dimensions
  6
ByLayer
 62
  256
370
   -1
100
AcDbLeader
  3
Standard
 71
    1
 72
    0
 73
    3
 74
    0
 75
    0
 40
1
 41
10
 76
3
 76
3
 10
73.5533679085202
 20
14.19853859982751
 30
0
 10
77
 20
10
 30
0
 10
90
 20
10
 30
0
  0
LEADER
  5
F9
100
AcDbEntity
  8
Dimensions
  6
ByLayer
 62
  256
370
   -1
100
AcDbLeader
  3
Standard
 71
    1
 72
    0
 73
    3
 74
    0
 75
    0
 40
1
 41
10
 76
5
 76
5
 10
16.19633593822287
 20
9.296272346404159
 30
0
 10
20
 20
10
 30
0
 10
31
 20
10
 30
0
 10
31
 20
10
 30
0
 10
31
 20
10
 30
0
  0
ARC
  5
FA
100
AcDbEntity
  8
0
  6
ByLayer
 62
  256
370
   -1
100
AcDbCircle
 10
-1.77635683940025e-14
 20
-57.82120361443646
 40
63.82120361443646
100
AcDbArc
 50
73.90603810588182
 51
106.0939618941182
  0
MTEXT
  5
FB
100
AcDbEntity
  8
0
  6
ByLayer
 62
  256
370
   -1
100
AcDbMText
 10
1.111111111111111
 20
9
 30
0
 40
1
 41
3.444444444444491
 71
    1
 72
    1
  1
North
  7
STANDARD
210
0
220
0
230
1
 50
0
 73
    2
 44
1
  0
DIMENSION
  5
FC
100
AcDbEntity
  8
Dimensions
  6
ByLayer
 62
  256
370
   -1
100
AcDbDimension
  2
*D5
 10
35
 20
15
 30
0
 11
33.875
 21
10
 31
0
 70
   32
  1
thickness = center_thickness
 71
    5
 72
    0
  3
Standard
 53
0
210
0
220
0
230
1
100
AcDbAlignedDimension
 13
60
 23
5
 33
0
 14
60
 24
15
 34
0
 50
90
100
AcDbRotatedDimension
  0
MTEXT
  5
FD
100
AcDbEntity
  8
0
  6
ByLayer
 62
  256
370
   -1
100
AcDbMText
 10
0.3055555555555092
 20
-13
 30
0
 40
1
 41
35.0000025714363
 71
    2
 72
    1
  1
air_gap_radius != core_radius + side_thickness
  7
STANDARD
210
0
220
0
230
1
 50
0
 73
    2
 44
1
  0
MTEXT
  5
FE
100
AcDbEntity
  8
0
  6
ByLayer
 62
  256
370
   -1
100
AcDbMText
 10
59.91666692381024
 20
-13
 30
0
 40
1
 41
34.66666923810297
 71
    2
 72
    1
  1
air_gap_radius = core_radius + side_thickness
  7
STANDARD
210
0
220
0
230
1
 50
0
 73
    2
 44
1
  0
MTEXT
  5
FF
100
AcDbEntity
  8
Dimensions
  6
ByLayer
 62
  256
370
   -1
100
AcDbMText
 10
16.88888888888884
 20
12
 30
0
 40
1
 41
14.05555606984294
 71
    1
 72
    1
  1
air_gap_radius > 0
  7
STANDARD
210
0
220
0
230
1
 50
0
 73
    2
 44
1
  0
MTEXT
  5
100
100
AcDbEntity
  8
Dimensions
  6
ByLayer
 62
  256
370
   -1
100
AcDbMText
 10
18
 20
5
 30
0
 40
1
 41
11.27777829206507
 71
    1
 72
    1
  1
core_radius > 0
  7
STANDARD
210
0
220
0
230
1
 50
0
 73
    2
 44
1
  0
MTEXT
  5
101
100
AcDbEntity
  8
Dimensions
  6
ByLayer
 62
  256
370
   -1
100
AcDbMText
 10
79
 20
12
 30
0
 40
1
 41
11.27777829206507
 71
    1
 72
    1
  1
core_radius < 0
  7
STANDARD
210
0
220
0
230
1
 50
0
 73
    2
 44
1
  0
LINE
  5
102
100
AcDbEntity
  8
0
  6
ByLayer
 62
  256
370
   -1
100
AcDbLine
 10
-17.69209285986896
 20
3.498743230233359
 11
-17.69209285986896
 21
-1.577493172355268
  0
LINE
  5
103
100
AcDbEntity
  8
0
  6
ByLayer
 62
  256
370
   -1
100
AcDbLine
 10
-17.69209285986896
 20
3.498743230233359
 11
-17.69209285986896
 21
8.755751761055588
  0
LINE
  5
104
100
AcDbEntity
  8
0
  6
ByLayer
 62
  256
370
   -1
100
AcDbLine
 10
17.69209285986892
 20
3.498743230233359
 11
17.69209285986892
 21
-1.577493172355265
  0
LINE
  5
105
100
AcDbEntity
  8
0
  6
ByLayer
 62
  256
370
   -1
100
AcDbLine
 10
17.69209285986892
 20
3.498743230233359
 11
17.69209285986892
 21
8.755751761055613
  0
ARC
  5
106
100
AcDbEntity
  8
0
  6
ByLayer
 62
  256
370
   -1
100
AcDbCircle
 10
0
 20
-37.8629069924979
 40
49.8629069924979
100
AcDbArc
 50
69.21791121504951
 51
110.7820887849506
  0
LINE
  5
107
100
AcDbEntity
  8
0
  6
ByLayer
 62
  256
370
   -1
100
AcDbLine
 10
41.46542652775634
 20
8.427254812625421
 11
41.46542652775634
 21
13.49656200168357
  0
LINE
  5
108
100
AcDbEntity
  8
0
  6
ByLayer
 62
  256
370
   -1
100
AcDbLine
 10
78.53457347224364
 20
8.427254812625421
 11
78.53457347224364
 21
13.49656200168357
  0
ARC
  5
109
100
AcDbEntity
  8
0
  6
ByLayer
 62
  256
370
   -1
100
AcDbCircle
 10
60
 20
-100
 40
105
100
AcDbArc
 50
79.83288984647122
 51
100.1671101535288
  0
LINE
  5
10A
100
AcDbEntity
  8
0
  6
ByLayer
 62
  256
370
   -1
100
AcDbLine
 10
41.46542652775634
 20
8.427254812625421
 11
41.46542652775634
 21
3.351195378679598
  0
LINE
  5
10B
100
AcDbEntity
  8
0
  6
ByLayer
 62
  256
370
   -1
100
AcDbLine
 10
78.53457347224364
 20
8.427254812625421
 11
78.53457347224364
 21
3.351195378679606
  0
DIMENSION
  5
10C
100
AcDbEntity
  8
Dimensions
  6
ByLayer
 62
  256
370
   -1
100
AcDbDimension
  2
*D6
 10
-26
 20
8.755751761055594
 30
0
 11
-27.125
 21
3.589129294350161
 31
0
 70
   32
  1
side_height
 71
    5
  3
Standard
 53
0
210
0
220
0
230
1
100
AcDbAlignedDimension
 13
-17.69209285986896
 23
-1.577493172355268
 33
0
 14
-17.69209285986896
 24
8.755751761055592
 34
0
 50
90
100
AcDbRotatedDimension
  0
MTEXT
  5
10D
100
AcDbEntity
  8
Dimensions
  6
ByLayer
 62
  256
370
   -1
100
AcDbMText
 10
77.8888888888888
 20
2
 30
0
 40
1
 41
14.05555606984294
 71
    1
 72
    1
  1
air_gap_radius < 0
  7
STANDARD
210
0
220
0
230
1
 50
0
 73
    2
 44
1
  0
DIMENSION
  5
10E
100
AcDbEntity
  8
Dimensions
  6
ByLayer
 62
  256
370
   -1
100
AcDbDimension
  2
*D7
 10
94
 20
13.49656200168357
 30
0
 11
92.875
 21
8.423878690181589
 31
0
 70
   32
  1
side_height
 71
    5
  3
Standard
 53
0
210
0
220
0
230
1
100
AcDbAlignedDimension
 13
78.53457347224364
 23
3.351195378679606
 33
0
 14
78.53457347224364
 24
13.49656200168357
 34
0
 50
90
100
AcDbRotatedDimension
  0
DIMENSION
  5
10F
100
AcDbEntity
  8
Dimensions
  6
ByLayer
 62
  256
370
   -1
100
AcDbDimension
  2
*D8
 10
41.46542652775634
 20
3.351195378679591
 30
0
 11
0
 21
0
 31
0
 70
   34
  1
angle
 71
    5
  3
Standard
 53
0
210
0
220
0
230
1
100
AcDb2LineAngularDimension
 13
60
 23
-100
 33
0
 14
78.53457347224364
 24
3.351195378679606
 34
0
 15
60
 25
-100
 35
0
 16
60
 26
26
 36
0
  0
DIMENSION
  5
110
100
AcDbEntity
  8
Dimensions
  6
ByLayer
 62
  256
370
   -1
100
AcDbDimension
  2
*D9
 10
-17.69209285986896
 20
-1.577493172355268
 30
0
 11
0
 21
0
 31
0
 70
   34
  1
angle
 71
    5
  3
Standard
 53
0
210
0
220
0
230
1
100
AcDb2LineAngularDimension
 13
0
 23
-100
 33
0
 14
17.69209285986892
 24
-1.577493172355265
 34
0
 15
0
 25
-100
 35
0
 16
2
 26
26
 36
0
  0
DIMENSION
  5
111
100
AcDbEntity
  8
Dimensions
  6
ByLayer
 62
  256
370
   -1
100
AcDbDimension
  2
*D10
 10
79
 20
22
 30
0
 11
59.99999999999999
 21
23.125
 31
0
 70
   32
  1
width
 71
    5
  3
Standard
 53
0
210
0
220
0
230
1
100
AcDbAlignedDimension
 13
41.46542652775634
 23
13.49656200168357
 33
0
 14
78.53457347224364
 24
13.49656200168357
 34
0
100
AcDbRotatedDimension
  0
LEADER
  5
112
100
AcDbEntity
  8
Coordinate_System
  6
ByLayer
 62
  256
370
   -1
100
AcDbLeader
  3
Standard
 71
    1
 72
    0
 73
    3
 74
    0
 75
    0
 40
1
 41
10
 76
2
 76
2
 10
36
 20
15
 30
0
 10
60
 20
15
 30
0
  0
LEADER
  5
113
100
AcDbEntity
  8
Coordinate_System
  6
ByLayer
 62
  256
370
   -1
100
AcDbLeader
  3
Standard
 71
    1
 72
    0
 73
    3
 74
    0
 75
    0
 40
1
 41
10
 76
2
 76
2
 10
60
 20
-9
 30
0
 10
60
 20
15
 30
0
  0
LEADER
  5
114
100
AcDbEntity
  8
Coordinate_System
  6
ByLayer
 62
  256
370
   -1
100
AcDbLeader
  3
Standard
 71
    1
 72
    0
 73
    3
 74
    0
 75
    0
 40
1
 41
10
 76
2
 76
2
 10
0
 20
24
 30
0
 10
0
 20
0
 30
0
  0
LEADER
  5
115
100
AcDbEntity
  8
Dimensions
  6
ByLayer
 62
  256
370
   -1
100
AcDbLeader
  3
Standard
 71
    1
 72
    0
 73
    3
 74
    0
 75
    0
 40
1
 41
10
 76
3
 76
3
 10
9.962345177991773
 20
-0.4974790341745035
 30
0
 10
19
 20
3
 30
0
 10
29
 20
3
 30
0
  0
LEADER
  5
116
100
AcDbEntity
  8
Coordinate_System
  6
ByLayer
 62
  256
370
   -1
100
AcDbLeader
  3
Standard
 71
    1
 72
    0
 73
    3
 74
    0
 75
    0
 40
1
 41
10
 76
2
 76
2
 10
24
 20
0
 30
0
 10
0
 20
0
 30
0
  0
DIMENSION
  5
117
100
AcDbEntity
  8
Dimensions
  6
ByLayer
 62
  256
370
   -1
100
AcDbDimension
  2
*D16
 10
-2
 20
8
 30
0
 11
-3.125
 21
5.5
 31
0
 70
   32
  1
thickness
 71
    5
  3
Standard
 53
0
210
0
220
0
230
1
100
AcDbAlignedDimension
 13
0
 23
0
 33
0
 14
0
 24
11
 34
0
 50
90
100
AcDbRotatedDimension
  0
DIMENSION
  5
118
100
AcDbEntity
  8
Dimensions
  6
ByLayer
 62
  256
370
   -1
100
AcDbDimension
  2
*D17
 10
-22
 20
12
 30
0
 11
-23.125
 21
6.000000000000003
 31
0
 70
   32
  1
center_thickness
 71
    5
 72
    0
  3
Standard
 53
0
210
0
220
0
230
1
100
AcDbAlignedDimension
 13
0
 23
0
 33
0
 14
0
 24
12
 34
0
 50
90
100
AcDbRotatedDimension
  0
LEADER
  5
119
100
AcDbEntity
  8
Dimensions
  6
ByLayer
 62
  256
370
   -1
100
AcDbLeader
  3
Standard
 71
    1
 72
    0
 73
    3
 74
    0
 75
    0
 40
1
 41
10
 76
3
 76
3
 10
72.56792478115985
 20
4.245130661796892
 30
0
 10
78
 20
0
 30
0
 10
92
 20
0
 30
0
  0
DIMENSION
  5
11A
100
AcDbEntity
  8
Dimensions
  6
ByLayer
 62
  256
370
   -1
100
AcDbDimension
  2
*D19
 10
34.98346963569497
 20
2.246702631184447
 30
0
 11
35.24990412935847
 21
7.364772351360823
 31
0
 70
   33
  1
side_thickness = center_thickness 
 71
    5
  3
Standard
 53
0
210
0
220
0
230
1
100
AcDbAlignedDimension
 13
40.62294591538162
 23
13.35576639501748
 33
0
 14
42.30790714013105
 24
3.498743230233357
 34
0
  0
ENDSEC
  0
SECTION
  2
OBJECTS
  0
DICTIONARY
  5
C
330
0
100
AcDbDictionary
281
    1
  3
ACAD_GROUP
350
D
  0
DICTIONARY
  5
D
330
C
100
AcDbDictionary
281
    1
  0
PLOTSETTINGS
  5
11B
100
AcDbPlotSettings
  6
1x1
 40
0
 41
0
 42
0
 43
0
  0
ENDSEC
  0
EOF
