<?xml version="1.0" encoding="UTF-8" standalone="no"?>
<svg width="214.489mm" height="83.6083mm"
 viewBox="0 0 608 237"
 xmlns="http://www.w3.org/2000/svg" xmlns:xlink="http://www.w3.org/1999/xlink"  version="1.2" baseProfile="tiny">
<title>Qt SVG Document</title>
<desc>Generated with Qt</desc>
<defs>
</defs>
<g fill="none" stroke="black" stroke-width="1" fill-rule="evenodd" stroke-linecap="square" stroke-linejoin="bevel" >

<g fill="#ffffff" fill-opacity="1" stroke="none" transform="matrix(1,0,0,1,0,0)"
font-family="Ubuntu Sans" font-size="11" font-weight="400" font-style="normal" 
>
<rect x="0" y="0" width="608" height="237"/>
</g>

<g fill="none" stroke="#000000" stroke-opacity="1" stroke-width="1" stroke-linecap="round" stroke-linejoin="round" transform="matrix(1,0,0,1,0,0)"
font-family="Ubuntu Sans" font-size="11" font-weight="400" font-style="normal" 
>
<polyline fill="none" vector-effect="non-scaling-stroke" points="384,94 382,94 380,94 378,94 376,94 374,94 372,94 370,93 368,93 366,93 364,93 362,93 360,93 358,93 356,93 354,93 352,93 350,92 348,92 346,92 344,92 342,92 340,92 338,92 336,92 334,92 332,92 330,92 328,92 326,92 324,92 322,92 320,92 318,91 316,91 314,91 312,91 310,91 308,91 306,91 304,91 302,91 300,91 298,91 296,91 294,91 292,91 290,91 288,91 286,92 284,92 282,92 280,92 278,92 276,92 274,92 272,92 270,92 268,92 266,92 264,92 262,92 260,92 258,92 256,92 254,93 252,93 250,93 248,93 246,93 244,93 242,93 240,93 238,93 236,94 234,94 232,94 230,94 228,94 226,94 224,94 222,94 " />
<polyline fill="none" vector-effect="non-scaling-stroke" points="380,142 378,142 376,142 374,142 372,142 370,141 368,141 366,141 364,141 362,141 360,141 358,141 356,141 354,140 352,140 350,140 348,140 346,140 344,140 342,140 340,140 338,140 336,140 334,140 332,140 330,140 328,140 326,139 324,139 322,139 320,139 318,139 316,139 314,139 312,139 310,139 308,139 306,139 304,139 302,139 300,139 298,139 296,139 294,139 292,139 290,139 288,139 286,139 284,139 282,139 280,139 278,139 276,140 274,140 272,140 270,140 268,140 266,140 264,140 262,140 260,140 258,140 256,140 254,140 252,140 250,141 248,141 246,141 244,141 242,141 240,141 238,141 236,141 234,142 232,142 230,142 228,142 226,142 " />
<polyline fill="none" vector-effect="non-scaling-stroke" points="230,190 222,94 " />
<polyline fill="none" vector-effect="non-scaling-stroke" points="376,190 384,94 " />
<polyline fill="none" vector-effect="non-scaling-stroke" points="222,94 220,95 218,95 216,95 214,95 212,95 210,95 208,96 206,96 204,96 202,96 200,96 198,97 196,97 194,97 192,97 190,97 188,98 186,98 184,98 183,98 181,99 179,99 177,99 175,99 173,99 171,100 169,100 167,100 165,101 163,101 161,101 159,101 157,102 155,102 153,102 151,102 149,103 147,103 145,103 143,104 141,104 139,104 137,105 135,105 133,105 131,106 129,106 127,106 125,107 123,107 121,107 119,108 117,108 115,108 113,109 111,109 109,109 107,110 105,110 103,110 101,111 100,111 98,112 96,112 94,112 92,113 90,113 88,114 86,114 84,114 82,115 80,115 78,116 76,116 74,117 72,117 70,117 68,118 66,118 64,119 63,119 " />
<polyline fill="none" vector-effect="non-scaling-stroke" points="226,142 224,142 222,142 220,143 218,143 216,143 214,143 212,143 210,143 208,144 206,144 204,144 202,144 200,144 198,145 196,145 194,145 192,145 190,146 188,146 186,146 184,146 182,146 180,147 178,147 176,147 174,147 172,148 170,148 168,148 166,149 164,149 162,149 160,149 158,150 156,150 154,150 152,151 151,151 149,151 147,151 145,152 143,152 141,152 139,153 137,153 135,153 133,154 131,154 129,154 127,155 125,155 123,155 121,156 119,156 117,157 115,157 113,157 111,158 109,158 107,158 105,159 103,159 101,160 99,160 97,160 95,161 93,161 92,162 90,162 88,163 86,163 84,163 82,164 80,164 78,165 76,165 74,166 " />
<polyline fill="none" vector-effect="non-scaling-stroke" points="85,212 63,119 " />
<polyline fill="none" vector-effect="non-scaling-stroke" points="543,119 541,119 539,118 537,118 535,117 533,117 531,116 529,116 528,116 526,115 524,115 522,114 520,114 518,114 516,113 514,113 512,112 510,112 508,112 506,111 504,111 502,110 500,110 498,110 496,109 494,109 492,109 490,108 488,108 486,107 484,107 482,107 480,106 478,106 476,106 474,105 473,105 471,105 469,104 467,104 465,104 463,104 461,103 459,103 457,103 455,102 453,102 451,102 449,102 447,101 445,101 443,101 441,100 439,100 437,100 435,100 433,99 431,99 429,99 427,99 425,98 423,98 421,98 419,98 417,98 415,97 413,97 411,97 409,97 407,97 405,96 403,96 401,96 399,96 397,96 395,95 393,95 391,95 389,95 387,95 385,95 384,94 " />
<polyline fill="none" vector-effect="non-scaling-stroke" points="532,166 530,165 528,165 526,164 524,164 522,163 521,163 519,163 517,162 515,162 513,161 511,161 509,160 507,160 505,160 503,159 501,159 499,158 497,158 495,158 493,157 491,157 489,157 487,156 485,156 483,156 481,155 479,155 477,154 475,154 473,154 471,153 469,153 467,153 466,152 464,152 462,152 460,151 458,151 456,151 454,151 452,150 450,150 448,150 446,149 444,149 442,149 440,149 438,148 436,148 434,148 432,147 430,147 428,147 426,147 424,146 422,146 420,146 418,146 416,146 414,145 412,145 410,145 408,145 406,144 404,144 402,144 400,144 398,144 396,144 394,143 392,143 390,143 388,143 386,143 384,142 382,142 380,142 " />
<polyline fill="none" vector-effect="non-scaling-stroke" points="521,212 543,119 " />
<polyline fill="none" vector-effect="non-scaling-stroke" points="287,216 287,206 " />
<polyline fill="none" vector-effect="non-scaling-stroke" points="287,206 290,206 " />
<polyline fill="none" vector-effect="non-scaling-stroke" points="290,211 291,211 292,210 292,209 292,208 291,207 290,206 " />
<polyline fill="none" vector-effect="non-scaling-stroke" points="290,211 287,211 " />
<polyline fill="none" vector-effect="non-scaling-stroke" points="292,216 290,211 " />
<polyline fill="none" vector-effect="non-scaling-stroke" points="296,214 296,215 297,215 298,216 299,215 299,215 300,214 " />
<polyline fill="none" vector-effect="non-scaling-stroke" points="296,214 296,211 " />
<polyline fill="none" vector-effect="non-scaling-stroke" points="300,211 300,210 299,210 298,209 297,210 296,210 296,211 " />
<polyline fill="none" vector-effect="non-scaling-stroke" points="300,211 300,214 " />
<polyline fill="none" vector-effect="non-scaling-stroke" points="304,216 304,206 " />
<polyline fill="none" vector-effect="non-scaling-stroke" points="303,209 306,209 " />
<polyline fill="none" vector-effect="non-scaling-stroke" points="309,214 310,215 310,215 311,216 312,215 313,215 314,214 " />
<polyline fill="none" vector-effect="non-scaling-stroke" points="309,214 309,211 " />
<polyline fill="none" vector-effect="non-scaling-stroke" points="314,211 313,210 313,210 312,209 311,210 310,210 309,211 " />
<polyline fill="none" vector-effect="non-scaling-stroke" points="314,211 314,214 " />
<polyline fill="none" vector-effect="non-scaling-stroke" points="317,216 317,209 " />
<polyline fill="none" vector-effect="non-scaling-stroke" points="317,209 320,209 " />
<polyline fill="none" vector-effect="non-scaling-stroke" points="320,209 320,210 " />
</g>

<g fill="none" stroke="#0000ff" stroke-opacity="1" stroke-width="1" stroke-linecap="round" stroke-linejoin="round" transform="matrix(1,0,0,1,0,0)"
font-family="Ubuntu Sans" font-size="11" font-weight="400" font-style="normal" 
>
<polyline fill="none" vector-effect="non-scaling-stroke" points="384,89 387,54 " />
<polyline fill="none" vector-effect="non-scaling-stroke" points="222,89 219,54 " />
<polyline fill="none" vector-effect="non-scaling-stroke" points="386,66 384,66 382,66 380,65 378,65 376,65 374,65 372,65 370,65 368,65 366,65 364,64 362,64 360,64 358,64 356,64 354,64 352,64 350,64 348,64 346,64 344,63 342,63 340,63 338,63 336,63 334,63 332,63 330,63 328,63 326,63 324,63 322,63 320,63 318,63 316,63 314,63 312,63 310,63 308,63 306,63 304,63 302,63 300,63 298,63 296,63 294,63 292,63 290,63 288,63 286,63 284,63 282,63 280,63 278,63 276,63 274,63 272,63 270,63 268,63 266,63 264,63 262,63 260,64 258,64 256,64 254,64 252,64 250,64 248,64 246,64 244,64 242,64 240,65 238,65 236,65 234,65 232,65 230,65 228,65 226,65 224,66 222,66 220,66 " />
</g>

<g fill="#0000ff" fill-opacity="1" stroke="#0000ff" stroke-opacity="1" stroke-width="1" stroke-linecap="round" stroke-linejoin="round" transform="matrix(1,0,0,1,0,0)"
font-family="Ubuntu Sans" font-size="11" font-weight="400" font-style="normal" 
>
<path vector-effect="non-scaling-stroke" fill-rule="evenodd" d="M386,66 L376,67 L376,64 L386,66"/>
</g>

<g fill="#0000ff" fill-opacity="1" stroke="#0000ff" stroke-opacity="1" stroke-width="1" stroke-linecap="round" stroke-linejoin="round" transform="matrix(1,0,0,1,0,0)"
font-family="Ubuntu Sans" font-size="11" font-weight="400" font-style="normal" 
>
<path vector-effect="non-scaling-stroke" fill-rule="evenodd" d="M220,66 L230,64 L230,67 L220,66"/>
</g>

<g fill="none" stroke="#0000ff" stroke-opacity="1" stroke-width="1" stroke-linecap="round" stroke-linejoin="round" transform="matrix(1,0,0,1,0,0)"
font-family="Ubuntu Sans" font-size="11" font-weight="400" font-style="normal" 
>
<polyline fill="none" vector-effect="non-scaling-stroke" points="288,47 290,47 " />
<polyline fill="none" vector-effect="non-scaling-stroke" points="292,49 292,48 291,47 290,47 " />
<polyline fill="none" vector-effect="non-scaling-stroke" points="292,49 292,54 " />
<polyline fill="none" vector-effect="non-scaling-stroke" points="292,54 289,54 " />
<polyline fill="none" vector-effect="non-scaling-stroke" points="289,50 288,51 288,51 288,52 288,53 288,53 289,54 " />
<polyline fill="none" vector-effect="non-scaling-stroke" points="289,50 292,50 " />
<polyline fill="none" vector-effect="non-scaling-stroke" points="295,54 295,47 " />
<polyline fill="none" vector-effect="non-scaling-stroke" points="295,47 298,47 " />
<polyline fill="none" vector-effect="non-scaling-stroke" points="299,49 299,48 299,47 298,47 " />
<polyline fill="none" vector-effect="non-scaling-stroke" points="299,49 299,54 " />
<polyline fill="none" vector-effect="non-scaling-stroke" points="303,57 305,57 " />
<polyline fill="none" vector-effect="non-scaling-stroke" points="305,57 306,57 306,56 307,55 " />
<polyline fill="none" vector-effect="non-scaling-stroke" points="307,55 307,47 " />
<polyline fill="none" vector-effect="non-scaling-stroke" points="307,47 304,47 " />
<polyline fill="none" vector-effect="non-scaling-stroke" points="304,47 303,47 303,48 302,49 " />
<polyline fill="none" vector-effect="non-scaling-stroke" points="302,49 302,52 " />
<polyline fill="none" vector-effect="non-scaling-stroke" points="302,52 303,53 303,53 304,54 " />
<polyline fill="none" vector-effect="non-scaling-stroke" points="304,54 307,54 " />
<polyline fill="none" vector-effect="non-scaling-stroke" points="310,44 310,52 " />
<polyline fill="none" vector-effect="non-scaling-stroke" points="310,52 310,53 310,53 311,54 " />
<polyline fill="none" vector-effect="non-scaling-stroke" points="318,54 316,54 " />
<polyline fill="none" vector-effect="non-scaling-stroke" points="314,52 314,53 315,53 316,54 " />
<polyline fill="none" vector-effect="non-scaling-stroke" points="314,52 314,49 " />
<polyline fill="none" vector-effect="non-scaling-stroke" points="318,49 318,48 317,47 316,47 315,47 315,48 314,49 " />
<polyline fill="none" vector-effect="non-scaling-stroke" points="318,49 318,50 " />
<polyline fill="none" vector-effect="non-scaling-stroke" points="318,50 314,50 " />
</g>

<g fill="none" stroke="#000000" stroke-opacity="1" stroke-width="1" stroke-linecap="round" stroke-linejoin="round" transform="matrix(1,0,0,1,0,0)"
font-family="Ubuntu Sans" font-size="11" font-weight="400" font-style="normal" 
>
<polyline fill="none" vector-effect="non-scaling-stroke" points="123,130 123,120 " />
<polyline fill="none" vector-effect="non-scaling-stroke" points="123,120 126,125 " />
<polyline fill="none" vector-effect="non-scaling-stroke" points="126,125 129,120 " />
<polyline fill="none" vector-effect="non-scaling-stroke" points="129,120 129,130 " />
<polyline fill="none" vector-effect="non-scaling-stroke" points="133,123 135,123 " />
<polyline fill="none" vector-effect="non-scaling-stroke" points="137,125 137,124 136,124 135,123 " />
<polyline fill="none" vector-effect="non-scaling-stroke" points="137,125 137,130 " />
<polyline fill="none" vector-effect="non-scaling-stroke" points="137,130 134,130 " />
<polyline fill="none" vector-effect="non-scaling-stroke" points="134,126 133,127 133,127 133,128 133,129 133,129 134,130 " />
<polyline fill="none" vector-effect="non-scaling-stroke" points="134,126 137,126 " />
<polyline fill="none" vector-effect="non-scaling-stroke" points="141,133 143,133 " />
<polyline fill="none" vector-effect="non-scaling-stroke" points="143,133 143,133 144,132 144,131 " />
<polyline fill="none" vector-effect="non-scaling-stroke" points="144,131 144,123 " />
<polyline fill="none" vector-effect="non-scaling-stroke" points="144,123 142,123 " />
<polyline fill="none" vector-effect="non-scaling-stroke" points="142,123 141,123 140,124 140,125 " />
<polyline fill="none" vector-effect="non-scaling-stroke" points="140,125 140,128 " />
<polyline fill="none" vector-effect="non-scaling-stroke" points="140,128 140,129 141,129 142,130 " />
<polyline fill="none" vector-effect="non-scaling-stroke" points="142,130 144,130 " />
<polyline fill="none" vector-effect="non-scaling-stroke" points="147,130 147,123 " />
<polyline fill="none" vector-effect="non-scaling-stroke" points="147,123 150,123 " />
<polyline fill="none" vector-effect="non-scaling-stroke" points="152,125 152,124 151,124 150,123 " />
<polyline fill="none" vector-effect="non-scaling-stroke" points="152,125 152,130 " />
<polyline fill="none" vector-effect="non-scaling-stroke" points="159,130 157,130 " />
<polyline fill="none" vector-effect="non-scaling-stroke" points="155,128 155,129 156,129 156,130 157,130 " />
<polyline fill="none" vector-effect="non-scaling-stroke" points="155,128 155,125 " />
<polyline fill="none" vector-effect="non-scaling-stroke" points="159,125 159,124 158,124 157,123 156,123 155,124 155,125 " />
<polyline fill="none" vector-effect="non-scaling-stroke" points="159,125 159,126 " />
<polyline fill="none" vector-effect="non-scaling-stroke" points="159,126 155,126 " />
<polyline fill="none" vector-effect="non-scaling-stroke" points="163,130 163,120 " />
<polyline fill="none" vector-effect="non-scaling-stroke" points="162,123 166,123 " />
<polyline fill="none" vector-effect="non-scaling-stroke" points="176,122 178,120 " />
<polyline fill="none" vector-effect="non-scaling-stroke" points="178,120 178,130 " />
<polyline fill="none" vector-effect="non-scaling-stroke" points="275,120 275,111 " />
<polyline fill="none" vector-effect="non-scaling-stroke" points="275,111 278,116 " />
<polyline fill="none" vector-effect="non-scaling-stroke" points="278,116 281,111 " />
<polyline fill="none" vector-effect="non-scaling-stroke" points="281,111 281,120 " />
<polyline fill="none" vector-effect="non-scaling-stroke" points="285,114 287,114 " />
<polyline fill="none" vector-effect="non-scaling-stroke" points="289,115 289,115 288,114 287,114 " />
<polyline fill="none" vector-effect="non-scaling-stroke" points="289,115 289,120 " />
<polyline fill="none" vector-effect="non-scaling-stroke" points="289,120 286,120 " />
<polyline fill="none" vector-effect="non-scaling-stroke" points="286,117 285,117 285,118 285,118 285,119 285,120 286,120 " />
<polyline fill="none" vector-effect="non-scaling-stroke" points="286,117 289,117 " />
<polyline fill="none" vector-effect="non-scaling-stroke" points="293,123 295,123 " />
<polyline fill="none" vector-effect="non-scaling-stroke" points="295,123 295,123 296,123 296,122 " />
<polyline fill="none" vector-effect="non-scaling-stroke" points="296,122 296,114 " />
<polyline fill="none" vector-effect="non-scaling-stroke" points="296,114 294,114 " />
<polyline fill="none" vector-effect="non-scaling-stroke" points="294,114 293,114 292,114 292,115 " />
<polyline fill="none" vector-effect="non-scaling-stroke" points="292,115 292,118 " />
<polyline fill="none" vector-effect="non-scaling-stroke" points="292,118 292,119 293,120 293,120 294,120 " />
<polyline fill="none" vector-effect="non-scaling-stroke" points="294,120 296,120 " />
<polyline fill="none" vector-effect="non-scaling-stroke" points="299,120 299,114 " />
<polyline fill="none" vector-effect="non-scaling-stroke" points="299,114 302,114 " />
<polyline fill="none" vector-effect="non-scaling-stroke" points="304,115 303,115 303,114 302,114 " />
<polyline fill="none" vector-effect="non-scaling-stroke" points="304,115 304,120 " />
<polyline fill="none" vector-effect="non-scaling-stroke" points="311,120 308,120 " />
<polyline fill="none" vector-effect="non-scaling-stroke" points="307,118 307,119 308,120 308,120 " />
<polyline fill="none" vector-effect="non-scaling-stroke" points="307,118 307,116 " />
<polyline fill="none" vector-effect="non-scaling-stroke" points="311,116 311,115 310,114 309,114 308,114 307,115 307,116 " />
<polyline fill="none" vector-effect="non-scaling-stroke" points="311,116 311,117 " />
<polyline fill="none" vector-effect="non-scaling-stroke" points="311,117 307,117 " />
<polyline fill="none" vector-effect="non-scaling-stroke" points="315,120 315,111 " />
<polyline fill="none" vector-effect="non-scaling-stroke" points="314,114 317,114 " />
</g>

<g fill="#000000" fill-opacity="1" stroke="none" transform="matrix(1,0,0,1,0,0)"
font-family="Ubuntu Sans" font-size="11" font-weight="400" font-style="normal" 
>
<circle cx="328" cy="112" r="0.5"/>
</g>

<g fill="none" stroke="#000000" stroke-opacity="1" stroke-width="1" stroke-linecap="round" stroke-linejoin="round" transform="matrix(1,0,0,1,0,0)"
font-family="Ubuntu Sans" font-size="11" font-weight="400" font-style="normal" 
>
<polyline fill="none" vector-effect="non-scaling-stroke" points="332,114 332,113 332,112 331,111 330,111 329,111 328,111 328,112 " />
<polyline fill="none" vector-effect="non-scaling-stroke" points="332,114 328,120 " />
<polyline fill="none" vector-effect="non-scaling-stroke" points="328,120 332,120 " />
<polyline fill="none" vector-effect="non-scaling-stroke" points="427,130 427,120 " />
<polyline fill="none" vector-effect="non-scaling-stroke" points="427,120 430,125 " />
<polyline fill="none" vector-effect="non-scaling-stroke" points="430,125 433,120 " />
<polyline fill="none" vector-effect="non-scaling-stroke" points="433,120 433,130 " />
<polyline fill="none" vector-effect="non-scaling-stroke" points="437,123 439,123 " />
<polyline fill="none" vector-effect="non-scaling-stroke" points="441,125 441,124 440,124 439,123 " />
<polyline fill="none" vector-effect="non-scaling-stroke" points="441,125 441,130 " />
<polyline fill="none" vector-effect="non-scaling-stroke" points="441,130 438,130 " />
<polyline fill="none" vector-effect="non-scaling-stroke" points="438,126 437,127 437,127 436,128 437,129 437,129 438,130 " />
<polyline fill="none" vector-effect="non-scaling-stroke" points="438,126 441,126 " />
<polyline fill="none" vector-effect="non-scaling-stroke" points="444,133 447,133 " />
<polyline fill="none" vector-effect="non-scaling-stroke" points="447,133 447,133 448,132 448,131 " />
<polyline fill="none" vector-effect="non-scaling-stroke" points="448,131 448,123 " />
<polyline fill="none" vector-effect="non-scaling-stroke" points="448,123 446,123 " />
<polyline fill="none" vector-effect="non-scaling-stroke" points="446,123 445,123 444,124 444,125 " />
<polyline fill="none" vector-effect="non-scaling-stroke" points="444,125 444,128 " />
<polyline fill="none" vector-effect="non-scaling-stroke" points="444,128 444,129 445,129 445,130 446,130 " />
<polyline fill="none" vector-effect="non-scaling-stroke" points="446,130 448,130 " />
<polyline fill="none" vector-effect="non-scaling-stroke" points="451,130 451,123 " />
<polyline fill="none" vector-effect="non-scaling-stroke" points="451,123 454,123 " />
<polyline fill="none" vector-effect="non-scaling-stroke" points="456,125 455,124 455,124 454,123 " />
<polyline fill="none" vector-effect="non-scaling-stroke" points="456,125 456,130 " />
<polyline fill="none" vector-effect="non-scaling-stroke" points="463,130 460,130 " />
<polyline fill="none" vector-effect="non-scaling-stroke" points="459,128 459,129 460,129 460,130 " />
<polyline fill="none" vector-effect="non-scaling-stroke" points="459,128 459,125 " />
<polyline fill="none" vector-effect="non-scaling-stroke" points="463,125 463,124 462,124 461,123 460,123 459,124 459,125 " />
<polyline fill="none" vector-effect="non-scaling-stroke" points="463,125 463,126 " />
<polyline fill="none" vector-effect="non-scaling-stroke" points="463,126 459,126 " />
<polyline fill="none" vector-effect="non-scaling-stroke" points="467,130 467,120 " />
<polyline fill="none" vector-effect="non-scaling-stroke" points="466,123 469,123 " />
<polyline fill="none" vector-effect="non-scaling-stroke" points="480,120 482,120 " />
<polyline fill="none" vector-effect="non-scaling-stroke" points="482,124 483,124 484,123 484,122 484,121 483,120 482,120 " />
<polyline fill="none" vector-effect="non-scaling-stroke" points="481,124 482,124 " />
<polyline fill="none" vector-effect="non-scaling-stroke" points="484,126 484,125 483,125 482,124 " />
<polyline fill="none" vector-effect="non-scaling-stroke" points="484,126 484,128 " />
<polyline fill="none" vector-effect="non-scaling-stroke" points="482,130 483,129 484,129 484,128 " />
<polyline fill="none" vector-effect="non-scaling-stroke" points="482,130 480,130 " />
<polyline fill="none" vector-effect="non-scaling-stroke" points="594,232 592,232 590,231 588,231 586,230 584,229 582,229 581,228 579,228 577,227 575,226 573,226 571,225 569,225 567,224 565,224 563,223 561,223 559,222 557,221 556,221 554,220 552,220 550,219 548,219 546,218 544,218 542,217 540,217 538,216 536,216 534,215 532,215 530,214 528,214 526,213 525,213 523,213 521,212 519,212 517,211 515,211 513,210 511,210 509,209 507,209 505,209 503,208 501,208 499,207 497,207 495,207 493,206 491,206 489,205 487,205 485,205 483,204 482,204 480,203 478,203 476,203 474,202 472,202 470,202 468,201 466,201 464,201 462,200 460,200 458,200 456,199 454,199 452,199 450,198 448,198 446,198 444,197 442,197 440,197 438,197 436,196 434,196 432,196 430,195 428,195 426,195 424,195 422,194 420,194 418,194 416,194 414,193 412,193 410,193 408,193 406,193 404,192 402,192 400,192 398,192 396,192 394,191 392,191 390,191 388,191 386,191 384,190 382,190 380,190 378,190 376,190 374,190 372,190 371,189 369,189 367,189 365,189 363,189 361,189 359,189 357,188 355,188 353,188 351,188 349,188 347,188 345,188 343,188 341,188 339,188 337,188 335,188 333,187 331,187 329,187 327,187 325,187 323,187 321,187 319,187 317,187 315,187 313,187 311,187 309,187 307,187 305,187 303,187 301,187 299,187 297,187 295,187 293,187 291,187 289,187 287,187 285,187 283,187 281,187 279,187 277,187 275,187 273,187 271,188 269,188 267,188 265,188 263,188 261,188 259,188 257,188 255,188 253,188 251,188 249,189 247,189 245,189 243,189 241,189 239,189 237,189 235,189 233,190 231,190 229,190 227,190 225,190 223,190 221,191 219,191 217,191 215,191 213,191 211,191 209,192 207,192 205,192 203,192 201,192 199,193 197,193 195,193 193,193 191,194 189,194 187,194 185,194 183,195 181,195 179,195 177,195 175,196 173,196 171,196 169,196 167,197 165,197 163,197 161,198 159,198 157,198 155,198 153,199 151,199 149,199 147,200 145,200 143,200 141,201 139,201 137,201 135,202 133,202 131,203 130,203 128,203 126,204 124,204 122,204 120,205 118,205 116,206 114,206 112,206 110,207 108,207 106,208 104,208 102,208 100,209 98,209 96,210 94,210 92,211 90,211 88,211 86,212 85,212 83,213 81,213 79,214 77,214 75,215 73,215 71,216 69,216 67,217 65,217 63,218 61,218 59,219 57,219 55,220 53,220 52,221 50,221 48,222 46,222 44,223 42,223 40,224 38,224 36,225 34,226 32,226 30,227 28,227 27,228 25,228 23,229 21,230 19,230 17,231 15,231 13,232 12,232 " />
<polyline fill="none" vector-effect="non-scaling-stroke" points="230,15 230,9 " />
<polyline fill="none" vector-effect="non-scaling-stroke" points="230,9 233,9 " />
<polyline fill="none" vector-effect="non-scaling-stroke" points="234,10 234,9 234,9 233,9 " />
<polyline fill="none" vector-effect="non-scaling-stroke" points="234,10 234,15 " />
<polyline fill="none" vector-effect="non-scaling-stroke" points="238,9 238,13 " />
<polyline fill="none" vector-effect="non-scaling-stroke" points="238,13 238,14 238,15 239,15 " />
<polyline fill="none" vector-effect="non-scaling-stroke" points="239,15 242,15 " />
<polyline fill="none" vector-effect="non-scaling-stroke" points="242,15 242,9 " />
<polyline fill="none" vector-effect="non-scaling-stroke" points="248,15 248,9 " />
<polyline fill="none" vector-effect="non-scaling-stroke" points="245,15 245,9 " />
<polyline fill="none" vector-effect="non-scaling-stroke" points="245,9 250,9 " />
<polyline fill="none" vector-effect="non-scaling-stroke" points="251,10 251,9 251,9 250,9 " />
<polyline fill="none" vector-effect="non-scaling-stroke" points="251,10 251,15 " />
<polyline fill="none" vector-effect="non-scaling-stroke" points="255,18 266,18 " />
<polyline fill="none" vector-effect="non-scaling-stroke" points="271,15 271,5 " />
<polyline fill="none" vector-effect="non-scaling-stroke" points="270,9 273,9 " />
<polyline fill="none" vector-effect="non-scaling-stroke" points="276,9 279,9 " />
<polyline fill="none" vector-effect="non-scaling-stroke" points="280,10 280,9 279,9 279,9 " />
<polyline fill="none" vector-effect="non-scaling-stroke" points="280,10 280,15 " />
<polyline fill="none" vector-effect="non-scaling-stroke" points="280,15 278,15 " />
<polyline fill="none" vector-effect="non-scaling-stroke" points="278,12 277,12 276,12 276,13 276,14 277,15 277,15 278,15 " />
<polyline fill="none" vector-effect="non-scaling-stroke" points="278,12 280,12 " />
<polyline fill="none" vector-effect="non-scaling-stroke" points="283,15 283,9 " />
<polyline fill="none" vector-effect="non-scaling-stroke" points="283,9 286,9 " />
<polyline fill="none" vector-effect="non-scaling-stroke" points="288,10 287,9 287,9 286,9 " />
<polyline fill="none" vector-effect="non-scaling-stroke" points="288,10 288,15 " />
<polyline fill="none" vector-effect="non-scaling-stroke" points="291,18 293,18 " />
<polyline fill="none" vector-effect="non-scaling-stroke" points="293,18 294,18 295,17 295,17 295,16 " />
<polyline fill="none" vector-effect="non-scaling-stroke" points="295,16 295,9 " />
<polyline fill="none" vector-effect="non-scaling-stroke" points="295,9 292,9 " />
<polyline fill="none" vector-effect="non-scaling-stroke" points="292,9 292,9 291,9 291,10 " />
<polyline fill="none" vector-effect="non-scaling-stroke" points="291,10 291,13 " />
<polyline fill="none" vector-effect="non-scaling-stroke" points="291,13 291,14 292,15 292,15 " />
<polyline fill="none" vector-effect="non-scaling-stroke" points="292,15 295,15 " />
<polyline fill="none" vector-effect="non-scaling-stroke" points="302,15 300,15 " />
<polyline fill="none" vector-effect="non-scaling-stroke" points="298,13 298,14 299,15 300,15 " />
<polyline fill="none" vector-effect="non-scaling-stroke" points="298,13 298,11 " />
<polyline fill="none" vector-effect="non-scaling-stroke" points="302,11 302,10 301,9 300,9 299,9 299,9 298,10 298,11 " />
<polyline fill="none" vector-effect="non-scaling-stroke" points="302,11 302,12 " />
<polyline fill="none" vector-effect="non-scaling-stroke" points="302,12 298,12 " />
<polyline fill="none" vector-effect="non-scaling-stroke" points="306,15 306,9 " />
<polyline fill="none" vector-effect="non-scaling-stroke" points="306,9 308,9 " />
<polyline fill="none" vector-effect="non-scaling-stroke" points="310,10 310,9 309,9 308,9 " />
<polyline fill="none" vector-effect="non-scaling-stroke" points="310,10 310,15 " />
<polyline fill="none" vector-effect="non-scaling-stroke" points="314,15 314,5 " />
<polyline fill="none" vector-effect="non-scaling-stroke" points="313,9 316,9 " />
<polyline fill="none" vector-effect="non-scaling-stroke" points="319,15 319,9 " />
<polyline fill="none" vector-effect="non-scaling-stroke" points="319,6 319,5 " />
<polyline fill="none" vector-effect="non-scaling-stroke" points="323,9 325,9 " />
<polyline fill="none" vector-effect="non-scaling-stroke" points="327,10 327,9 326,9 325,9 " />
<polyline fill="none" vector-effect="non-scaling-stroke" points="327,10 327,15 " />
<polyline fill="none" vector-effect="non-scaling-stroke" points="327,15 324,15 " />
<polyline fill="none" vector-effect="non-scaling-stroke" points="324,12 323,12 323,12 323,13 323,14 323,15 324,15 " />
<polyline fill="none" vector-effect="non-scaling-stroke" points="324,12 327,12 " />
<polyline fill="none" vector-effect="non-scaling-stroke" points="330,5 330,14 " />
<polyline fill="none" vector-effect="non-scaling-stroke" points="330,14 330,14 331,15 331,15 " />
<polyline fill="none" vector-effect="non-scaling-stroke" points="342,13 346,13 " />
<polyline fill="none" vector-effect="non-scaling-stroke" points="342,10 346,10 " />
<polyline fill="none" vector-effect="non-scaling-stroke" points="356,5 358,5 " />
<polyline fill="none" vector-effect="non-scaling-stroke" points="358,10 359,9 360,9 360,8 360,7 360,6 359,5 358,5 " />
<polyline fill="none" vector-effect="non-scaling-stroke" points="357,10 358,10 " />
<polyline fill="none" vector-effect="non-scaling-stroke" points="360,12 360,11 359,10 358,10 " />
<polyline fill="none" vector-effect="non-scaling-stroke" points="360,12 360,13 " />
<polyline fill="none" vector-effect="non-scaling-stroke" points="358,15 359,15 360,14 360,13 " />
<polyline fill="none" vector-effect="non-scaling-stroke" points="358,15 356,15 " />
</g>
</g>
</svg>
